<?xml version="1.0" encoding="UTF-8" standalone="no"?><!DOCTYPE svg PUBLIC "-//W3C//DTD SVG 1.1//EN" "http://www.w3.org/Graphics/SVG/1.1/DTD/svg11.dtd"><svg width="100%" height="100%" viewBox="0 0 469 69" version="1.1" xmlns="http://www.w3.org/2000/svg" xmlns:xlink="http://www.w3.org/1999/xlink" xml:space="preserve" xmlns:serif="http://www.serif.com/" style="fill-rule:evenodd;clip-rule:evenodd;stroke-miterlimit:2;"><rect x="1.118" y="1.118" width="465.886" height="66.263" style="fill:url(#_Linear1);"/><rect x="1.118" y="1.118" width="465.886" height="66.263" style="fill:none;stroke:#fff;stroke-width:1px;"/><rect x="9.848" y="10.266" width="96.387" height="48.906" style="fill:#fff;fill-rule:nonzero;"/><path d="M21.778,37.032l0.587,0.183c0.982,4.731 4.695,8.459 9.417,9.454l0.189,0.587c-5.171,-0.957 -9.245,-5.042 -10.193,-10.224Zm-5.281,-1.957l-5.935,0l0,23.383l23.381,0.002l0,-5.934l0.358,0l0,-17.807l-2.887,3.139l2.572,11.961l-3.603,-11.289l-12.279,-3.811l-1.607,0l0,0.356Z" style="fill:#118acb;fill-rule:nonzero;"/><path d="M36.633,22.178c5.171,0.959 9.25,5.047 10.195,10.231l-0.588,-0.182c-0.978,-4.736 -4.697,-8.465 -9.42,-9.457l-0.187,-0.592Zm21.41,-11.199l-23.386,0l0,5.934l-0.356,0l0,17.806l2.891,-3.14l-2.575,-11.963l3.606,11.293l12.275,3.81l1.608,0l0,-0.355l5.937,0l0,-23.385Z" style="fill:#118acb;fill-rule:nonzero;"/><path d="M31.996,22.174l-0.186,0.59c-4.724,0.979 -8.449,4.703 -9.44,9.432l-0.586,0.187c0.955,-5.177 5.036,-9.259 10.212,-10.209Zm1.947,-5.261l0,-5.934l-23.381,0l0,23.385l5.935,0l0,0.355l17.804,0l-3.133,-2.896l-11.948,2.58l11.274,-3.609l3.807,-12.297l0,16.222l0,-17.806l-0.358,0Z" style="fill:#004990;fill-rule:nonzero;"/><path d="M46.824,37.055c-0.96,5.176 -5.039,9.256 -10.211,10.205l0.182,-0.588c4.723,-0.982 8.449,-4.703 9.441,-9.429l0.588,-0.188Zm5.282,-1.98l0,-0.356l-17.805,0l3.134,2.893l11.948,-2.578l-11.276,3.609l-3.806,12.297l0,1.586l0.356,0l0,5.934l23.386,-0.002l0,-23.383l-5.937,0Z" style="fill:#004990;fill-rule:nonzero;"/><path d="M95.366,18.37c-1.001,0 -1.828,0.318 -2.458,0.949c-0.922,0.922 -1.248,2.348 -1.248,3.381c0,1.006 0.354,2.537 1.343,3.527c0.618,0.621 1.382,0.934 2.274,0.934c1.292,0 2.272,-0.42 2.909,-1.25c0.58,-0.75 0.874,-1.819 0.874,-3.168c0,-1.457 -0.392,-2.59 -1.166,-3.363c-0.876,-0.877 -1.959,-1.01 -2.528,-1.01Zm-19.04,4.261c0.354,0.022 1.328,0.075 2.353,0.03l-1.181,-3.153l-1.172,3.123Zm-18.285,-11.652l0,23.383l23.385,0l0,-2.613l0.712,0l0,2.613l23.385,0l0,-23.383l-47.482,0Zm14.093,16.75c-0.07,0.074 -0.081,0.08 -0.093,0.082l-0.342,0.029c-1.332,-1.31 -4.29,-4.543 -6.056,-6.476l-1.163,-1.268c0,1.186 0.01,5.805 0.045,6.629c0.03,0.151 0.3,0.197 0.441,0.223c0.185,0.027 0.323,0.043 0.423,0.053c0.279,0.031 0.378,0.041 0.48,0.17c0.114,0.136 0.082,0.279 0.006,0.353c-0.076,0.07 -0.251,0.068 -0.84,0.051c-0.251,-0.012 -0.624,-0.024 -0.991,-0.022c-0.328,0.002 -0.654,0.014 -0.913,0.024c-0.596,0.017 -0.708,0.019 -0.768,-0.022c-0.047,-0.031 -0.078,-0.082 -0.088,-0.142c-0.008,-0.055 -0.004,-0.137 0.072,-0.229c0.104,-0.127 0.2,-0.138 0.465,-0.166c0.116,-0.013 0.254,-0.027 0.426,-0.054c0.206,-0.036 0.446,-0.157 0.459,-0.231c0.067,-0.408 0.047,-5.18 0.033,-6.982c-0.019,-0.477 -0.048,-0.62 -0.079,-0.7c-0.149,-0.418 -0.825,-0.461 -1.113,-0.484c-0.071,-0.006 -0.115,-0.006 -0.144,-0.014l-0.091,-0.431l2.063,-0.125c0.179,0.095 0.519,0.349 0.829,0.675l6.153,6.776c-0.051,-1.664 -0.211,-5.42 -0.262,-6.555c-0.033,-0.179 -0.308,-0.23 -0.439,-0.254c-0.204,-0.031 -0.356,-0.047 -0.443,-0.056c-0.262,-0.028 -0.36,-0.039 -0.464,-0.166c-0.11,-0.139 -0.08,-0.282 -0.005,-0.356c0.079,-0.07 0.253,-0.068 0.845,-0.045c0.281,0.008 0.629,0.018 0.988,0.018c0.326,-0.004 0.653,-0.014 0.914,-0.024c0.593,-0.019 0.705,-0.023 0.765,0.022c0.048,0.029 0.08,0.086 0.09,0.142c0.009,0.053 0.002,0.135 -0.073,0.229c-0.102,0.127 -0.204,0.137 -0.465,0.164c-0.115,0.014 -0.252,0.027 -0.429,0.055c-0.253,0.045 -0.457,0.166 -0.456,0.207c0.003,0.045 0.21,7.021 0.207,7.621l0.022,1.248l-0.009,0.031Zm10.628,-0.359c-0.012,0.086 -0.069,0.148 -0.115,0.181c-0.131,0.055 -0.358,0.045 -0.817,0.03c-0.256,-0.012 -0.602,-0.028 -0.963,-0.024c-0.312,0.004 -0.599,0.012 -0.887,0.022c-0.613,0.019 -0.796,0.023 -0.879,-0.032c-0.078,-0.066 -0.137,-0.21 -0.078,-0.349c0.065,-0.152 0.179,-0.166 0.428,-0.193c0.109,-0.012 0.238,-0.028 0.408,-0.051c0.087,-0.018 0.289,-0.057 0.33,-0.131c-0.015,-0.111 -0.367,-1.086 -0.868,-2.432l-0.372,-1.004c-1.539,-0.082 -2.574,-0.041 -2.892,-0.025l-0.411,1.098l-0.128,0.351l-0.682,1.83c-0.026,0.078 -0.026,0.139 -0.002,0.18c0.051,0.082 0.197,0.111 0.285,0.127c0.15,0.025 0.262,0.033 0.357,0.043c0.258,0.023 0.401,0.037 0.501,0.275c0.029,0.071 0.021,0.143 -0.012,0.199c-0.038,0.057 -0.098,0.09 -0.176,0.1c-0.324,0.029 -0.643,0.018 -1.004,0.01c-0.226,-0.01 -0.53,-0.022 -0.861,-0.018c-0.317,0.004 -0.592,0.012 -0.813,0.022c-0.502,0.013 -0.597,0.013 -0.654,-0.024c-0.062,-0.037 -0.131,-0.109 -0.135,-0.205c-0.006,-0.056 0.009,-0.14 0.106,-0.22c0.132,-0.108 0.234,-0.116 0.476,-0.139c0.125,-0.012 0.285,-0.026 0.499,-0.053c0.17,-0.025 0.537,-0.183 0.632,-0.379c0.08,-0.154 0.884,-2.293 1.665,-4.363l0.032,-0.088c0.705,-1.869 1.499,-3.986 1.711,-4.506l0.487,-0.074c0.099,0.098 1.024,2.516 2.329,5.922c0.634,1.648 1.178,3.07 1.245,3.226c0.105,0.18 0.408,0.233 0.573,0.26c0.428,0.069 0.501,0.094 0.607,0.215c0.078,0.086 0.083,0.166 0.078,0.219Zm7.133,-6.783c-0.217,0 -0.27,-0.174 -0.385,-0.67c-0.23,-1.006 -0.578,-1.006 -1.881,-1.006l-1.169,0.004c0.009,0.529 0.005,1.47 0,2.466c-0.01,2.137 -0.019,4.782 0.077,5.206c0.037,0.166 0.42,0.3 0.611,0.335l0.359,0.045c0.374,0.047 0.542,0.065 0.645,0.223c0.088,0.137 0.069,0.275 -0.049,0.365c-0.07,0.057 -0.205,0.057 -0.949,0.028c-0.4,-0.014 -0.896,-0.03 -1.469,-0.032c-0.707,0 -1.167,0.022 -1.503,0.038c-0.386,0.019 -0.593,0.029 -0.788,-0.01c-0.072,-0.032 -0.123,-0.088 -0.14,-0.16c-0.019,-0.086 0.002,-0.18 0.064,-0.254c0.102,-0.127 0.201,-0.135 0.459,-0.164c0.121,-0.012 0.258,-0.028 0.43,-0.053c0.228,-0.039 0.705,-0.223 0.728,-0.358c0.051,-0.326 0.069,-4.74 0.076,-6.861l0.002,-0.808l-1.773,0.007c-0.496,0.006 -0.812,0.186 -1.213,0.682c-0.092,0.137 -0.349,0.482 -0.528,0.711c-0.11,0.131 -0.285,0.262 -0.441,0.197c-0.05,-0.019 -0.142,-0.092 -0.12,-0.289l0.616,-2.461c0.02,-0.097 0.098,-0.26 0.261,-0.26c0.185,0 0.217,0.059 0.355,0.315l0.056,0.109c0.118,0.186 0.208,0.33 1.002,0.313l6.016,0.025c0.026,0 0.082,-0.015 0.091,-0.043c0.233,-0.471 0.374,-0.734 0.554,-0.734c0.13,0 0.287,0.072 0.287,0.408l0,2.434c-0.016,0.156 -0.119,0.252 -0.281,0.252Zm9.906,5.041c-0.058,0.089 -1.451,2.181 -4.45,2.181c-1.538,0 -2.851,-0.496 -3.792,-1.439c-0.922,-0.922 -1.452,-2.237 -1.452,-3.606c0,-1.312 0.475,-2.531 1.332,-3.431c0.986,-1.026 2.407,-1.571 4.122,-1.571c1.449,0 2.777,0.53 3.738,1.489c0.906,0.91 1.405,2.127 1.405,3.433c0,0.803 -0.068,1.69 -0.903,2.944Z" style="fill:#000e23;"/><path d="M67.51,42.151c-1.003,0 -1.826,0.318 -2.455,0.947c-0.924,0.922 -1.254,2.354 -1.254,3.379c0,1.008 0.351,2.541 1.345,3.531c0.616,0.618 1.383,0.932 2.274,0.932c1.294,0 2.269,-0.42 2.91,-1.248c0.582,-0.754 0.875,-1.818 0.875,-3.17c0,-1.457 -0.395,-2.588 -1.167,-3.363c-0.877,-0.879 -1.96,-1.008 -2.528,-1.008Zm16.194,4.26c0.354,0.023 1.323,0.072 2.352,0.033l-1.181,-3.156l-1.171,3.123Zm-1.566,-11.336l0,2.609l-0.712,0l0,-2.609l-23.385,0l0,23.385l47.482,0l0,-23.385l-23.385,0Zm-10.193,14.33c-0.057,0.094 -1.451,2.184 -4.451,2.184c-1.539,0 -2.848,-0.499 -3.792,-1.44c-0.921,-0.922 -1.451,-2.236 -1.451,-3.607c0,-1.311 0.475,-2.528 1.334,-3.428c0.982,-1.027 2.407,-1.572 4.12,-1.572c1.451,0 2.777,0.529 3.736,1.49c0.909,0.908 1.409,2.125 1.409,3.432c0,0.796 -0.072,1.689 -0.905,2.941Zm7.6,1.93c-0.072,0.054 -0.209,0.054 -0.953,0.031c-0.401,-0.014 -0.897,-0.031 -1.466,-0.035c-0.731,0 -1.203,0.023 -1.516,0.039c-0.372,0.015 -0.579,0.027 -0.774,-0.014c-0.076,-0.029 -0.121,-0.084 -0.14,-0.158c-0.023,-0.088 0,-0.178 0.06,-0.252c0.105,-0.125 0.202,-0.135 0.465,-0.164c0.121,-0.012 0.258,-0.029 0.425,-0.053c0.231,-0.045 0.705,-0.224 0.731,-0.357c0.051,-0.326 0.066,-4.783 0.074,-6.918l0.002,-0.754l-1.77,0.01c-0.501,0.004 -0.818,0.183 -1.215,0.679c-0.09,0.133 -0.347,0.479 -0.531,0.711c-0.105,0.131 -0.285,0.262 -0.436,0.197c-0.044,-0.017 -0.148,-0.082 -0.124,-0.289l0.618,-2.461c0.021,-0.097 0.099,-0.259 0.264,-0.259c0.183,0 0.216,0.06 0.348,0.314l0.061,0.108c0.113,0.187 0.204,0.334 1.001,0.314l6.016,0.029c0.026,0 0.081,-0.019 0.09,-0.047c0.233,-0.47 0.374,-0.734 0.555,-0.734c0.128,0 0.288,0.072 0.288,0.408l-0.004,2.434c-0.014,0.156 -0.115,0.252 -0.276,0.252c-0.221,0 -0.273,-0.17 -0.386,-0.67c-0.229,-1.002 -0.579,-1.002 -1.881,-1.002l-1.173,0.002c0.012,0.529 0.006,1.469 0.004,2.467c-0.011,2.14 -0.017,4.781 0.076,5.203c0.04,0.166 0.416,0.303 0.609,0.336c0.167,0.025 0.307,0.041 0.395,0.051c0.339,0.041 0.51,0.058 0.611,0.218c0.106,0.162 0.041,0.295 -0.048,0.364Zm10.594,-0.186c-0.012,0.088 -0.069,0.152 -0.116,0.182c-0.13,0.054 -0.357,0.047 -0.819,0.029c-0.236,-0.012 -0.6,-0.025 -0.958,-0.023c-0.316,0.003 -0.611,0.011 -0.873,0.021c-0.629,0.023 -0.811,0.025 -0.893,-0.031c-0.064,-0.051 -0.144,-0.192 -0.08,-0.35c0.065,-0.152 0.179,-0.166 0.432,-0.193c0.114,-0.014 0.243,-0.028 0.404,-0.051c0.088,-0.018 0.285,-0.057 0.33,-0.129c-0.013,-0.109 -0.36,-1.064 -0.867,-2.433l-0.373,-1.004c-1.531,-0.08 -2.571,-0.041 -2.893,-0.026l-0.439,1.182l-0.78,2.099c-0.026,0.077 -0.026,0.137 0,0.178c0.048,0.082 0.194,0.114 0.284,0.129c0.149,0.024 0.26,0.031 0.348,0.041c0.269,0.026 0.41,0.037 0.509,0.276c0.027,0.07 0.023,0.142 -0.014,0.201c-0.036,0.056 -0.097,0.09 -0.175,0.097c-0.328,0.034 -0.646,0.022 -1.01,0.008c-0.251,-0.008 -0.529,-0.017 -0.853,-0.015c-0.319,0.003 -0.606,0.011 -0.819,0.019c-0.497,0.016 -0.592,0.016 -0.648,-0.021c-0.065,-0.036 -0.129,-0.11 -0.135,-0.207c-0.005,-0.055 0.012,-0.139 0.104,-0.215c0.132,-0.11 0.233,-0.119 0.482,-0.143c0.123,-0.01 0.279,-0.025 0.495,-0.055c0.17,-0.023 0.538,-0.181 0.634,-0.376c0.078,-0.157 0.941,-2.446 1.699,-4.467c0.664,-1.766 1.491,-3.965 1.709,-4.491l0.487,-0.072c0.095,0.096 1.025,2.52 2.335,5.94c0.625,1.638 1.168,3.048 1.237,3.209c0.103,0.175 0.412,0.23 0.574,0.257c0.42,0.069 0.498,0.096 0.605,0.215c0.077,0.088 0.083,0.166 0.077,0.219Zm10.996,-8.965c-0.105,0.125 -0.201,0.135 -0.462,0.162c-0.113,0.014 -0.251,0.028 -0.429,0.055c-0.255,0.047 -0.461,0.166 -0.459,0.207c0.002,0.051 0.211,7.018 0.207,7.621l0.023,1.248l-0.441,0.141c-1.344,-1.313 -4.293,-4.541 -6.055,-6.467l-1.166,-1.275c0,1.185 0.009,5.806 0.045,6.629c0.031,0.15 0.304,0.201 0.438,0.224c0.201,0.027 0.346,0.043 0.444,0.055c0.261,0.027 0.359,0.037 0.46,0.166c0.114,0.137 0.082,0.279 0.005,0.353c-0.076,0.075 -0.248,0.069 -0.843,0.049c-0.283,-0.008 -0.633,-0.021 -0.988,-0.019c-0.311,0.002 -0.623,0.011 -0.875,0.021c-0.643,0.024 -0.744,0.024 -0.805,-0.019c-0.045,-0.032 -0.082,-0.082 -0.089,-0.143c-0.006,-0.055 -0.001,-0.135 0.072,-0.228c0.106,-0.127 0.202,-0.139 0.467,-0.167c0.126,-0.013 0.258,-0.027 0.429,-0.052c0.207,-0.039 0.446,-0.158 0.454,-0.233c0.083,-0.49 0.034,-6.916 0.034,-6.982c-0.019,-0.477 -0.047,-0.619 -0.08,-0.701c-0.146,-0.414 -0.822,-0.459 -1.111,-0.481c-0.08,-0.006 -0.117,-0.009 -0.144,-0.015l-0.09,-0.432l2.062,-0.125c0.179,0.098 0.519,0.35 0.828,0.678l6.154,6.773c-0.051,-1.648 -0.211,-5.402 -0.259,-6.533c-0.035,-0.201 -0.311,-0.252 -0.442,-0.277c-0.212,-0.03 -0.361,-0.045 -0.443,-0.053c-0.262,-0.031 -0.362,-0.041 -0.464,-0.17c-0.128,-0.156 -0.063,-0.293 -0.005,-0.354c0.078,-0.068 0.251,-0.068 0.844,-0.044c0.281,0.007 0.631,0.019 0.99,0.017c0.327,-0.002 0.653,-0.014 0.914,-0.021c0.607,-0.022 0.708,-0.022 0.767,0.019c0.047,0.029 0.076,0.082 0.088,0.145c0.008,0.05 0,0.133 -0.075,0.228Z" style="fill:#000e23;"/><path d="M149.058,28.474c0.54,0 0.708,-0.072 0.924,-0.288c0.072,-0.048 0.252,-0.024 0.3,0.048c-0.228,0.432 -0.612,1.428 -0.708,1.872c-0.072,0.12 -0.324,0.12 -0.396,0c0.048,-0.492 0.048,-0.876 -0.18,-1.008c-0.18,-0.108 -0.48,-0.156 -0.864,-0.156l-0.66,0c-0.36,0 -0.372,0.024 -0.504,0.432l-1.644,5.293c-0.324,1.044 -0.36,1.307 0.276,1.367l0.504,0.048c0.06,0.096 0.024,0.288 -0.072,0.348c-0.78,-0.024 -1.284,-0.036 -1.86,-0.036c-0.576,0 -1.056,0.012 -1.716,0.036c-0.096,-0.072 -0.096,-0.3 0.024,-0.348l0.48,-0.06c0.54,-0.072 0.672,-0.192 1.032,-1.355l1.656,-5.293c0.132,-0.408 0.12,-0.432 -0.288,-0.432l-0.612,0c-0.42,0 -0.756,0.048 -1.032,0.204c-0.336,0.18 -0.576,0.468 -0.924,0.96c-0.12,0.072 -0.336,0 -0.36,-0.12c0.36,-0.636 0.708,-1.344 0.9,-1.8c0.048,-0.072 0.192,-0.072 0.288,-0.024c-0.024,0.24 0.12,0.312 0.9,0.312l4.536,0Z" style="fill:#fff;fill-rule:nonzero;"/><path d="M150.99,29.446c0.216,-0.612 0.264,-0.756 0.036,-0.888l-0.288,-0.168c-0.024,-0.072 -0.024,-0.168 0.048,-0.216c0.288,-0.12 1.296,-0.335 1.824,-0.36c0.048,0.025 0.072,0.072 0.096,0.096c-0.216,0.6 -0.504,1.345 -0.732,2.004l-1.284,3.624l0.024,0.024c0.612,-0.756 1.104,-1.188 1.476,-1.464c0.456,-0.348 0.912,-0.6 1.32,-0.6c0.552,0 0.84,0.408 0.84,0.924c0,0.913 -0.564,2.16 -1.056,2.904c-0.36,0.553 -1.092,1.236 -1.752,1.236c-0.384,0 -0.576,-0.216 -0.576,-0.432c0,-0.228 0.204,-0.456 0.384,-0.456c0.072,0 0.144,0.048 0.216,0.121c0.12,0.119 0.228,0.191 0.3,0.191c0.108,0 0.192,-0.168 0.324,-0.468c0.36,-0.84 0.912,-2.424 0.912,-3.048c0,-0.215 -0.072,-0.324 -0.216,-0.324c-0.12,0 -0.312,0.084 -0.54,0.252c-0.36,0.264 -0.72,0.649 -1.236,1.332c-0.612,0.792 -1.26,2.22 -1.512,2.64c-0.084,0.144 -0.216,0.192 -0.408,0.192c-0.216,0 -0.624,-0.072 -0.504,-0.408l2.304,-6.708Z" style="fill:#fff;fill-rule:nonzero;"/><path d="M156.702,29.866c0,-0.384 0.276,-0.828 0.78,-0.828c0.348,0 0.552,0.192 0.552,0.564c0,0.432 -0.324,0.828 -0.78,0.828c-0.36,0 -0.552,-0.264 -0.552,-0.564Zm-0.576,5.628c-0.048,0.12 -0.06,0.228 0.036,0.228c0.192,0 0.852,-0.456 1.2,-0.828c0.132,0 0.228,0.12 0.204,0.24c-0.336,0.504 -1.488,1.428 -2.4,1.428c-0.204,0 -0.384,-0.264 -0.384,-0.372c0,-0.132 0.024,-0.264 0.108,-0.468l1.332,-3.156c0.048,-0.12 0.048,-0.192 -0.024,-0.192c-0.144,0 -0.648,0.312 -1.032,0.648c-0.12,0 -0.204,-0.143 -0.168,-0.24c0.648,-0.756 1.668,-1.284 2.208,-1.284c0.168,0 0.36,0.168 0.396,0.337c0.024,0.095 -0.024,0.263 -0.132,0.515l-1.344,3.144Z" style="fill:#fff;fill-rule:nonzero;"/><path d="M157.554,35.782c0,-0.264 0.192,-0.576 0.456,-0.576c0.096,0 0.18,0.072 0.264,0.169c0.312,0.336 0.576,0.539 0.912,0.539c0.252,0 0.48,-0.18 0.48,-0.432c0,-0.395 -0.372,-0.815 -0.6,-1.103c-0.336,-0.433 -0.504,-0.841 -0.504,-1.141c0,-0.504 0.264,-0.912 0.696,-1.284c0.336,-0.288 0.768,-0.456 1.08,-0.456c0.552,0 0.96,0.408 0.96,0.828c0,0.324 -0.264,0.504 -0.384,0.504c-0.108,0 -0.192,-0.048 -0.264,-0.144c-0.336,-0.384 -0.528,-0.515 -0.84,-0.515c-0.264,0 -0.408,0.203 -0.408,0.372c0,0.395 0.396,0.743 0.612,1.031c0.348,0.469 0.528,0.805 0.516,1.272c-0.012,0.409 -0.216,0.865 -0.672,1.236c-0.36,0.3 -0.84,0.48 -1.344,0.48c-0.504,0 -0.96,-0.36 -0.96,-0.78Z" style="fill:#fff;fill-rule:nonzero;"/><path d="M165.75,35.47c-0.048,0.144 -0.048,0.288 0.036,0.42c0.06,0.096 0.192,0.24 0.36,0.24c0.18,0 0.684,-0.18 1.092,-0.78c0.492,-0.732 0.768,-1.595 0.768,-2.256c0,-0.648 -0.408,-0.923 -0.816,-0.923c-0.12,0 -0.192,0.011 -0.264,0.023l-1.176,3.276Zm1.296,-3.756c0.12,-0.024 0.24,-0.024 0.384,-0.024c1.056,0 1.848,0.504 1.848,1.548c0,0.876 -0.528,1.776 -1.248,2.448c-0.672,0.636 -1.56,0.876 -2.112,0.876c-0.12,0 -0.264,-0.048 -0.408,-0.096c-0.096,0.024 -0.156,0.096 -0.192,0.216l-0.516,1.525c-0.228,0.659 -0.24,0.876 0.192,0.911l0.504,0.049c0.096,0.071 0.072,0.275 -0.072,0.323c-0.984,0 -1.992,0.036 -2.976,0.12c-0.121,-0.072 -0.144,-0.264 -0.048,-0.348l0.336,-0.048c0.576,-0.084 0.66,-0.335 0.888,-0.984l2.076,-5.856c-0.384,0.072 -0.792,0.264 -1.2,0.48c-0.144,-0.024 -0.216,-0.192 -0.144,-0.288c0.384,-0.288 1.008,-0.612 1.536,-0.756l0.36,-0.9c0.072,-0.096 0.24,-0.12 0.456,-0.12c0.288,0 0.552,0.12 0.6,0.216l-0.264,0.708Z" style="fill:#fff;fill-rule:nonzero;"/><path d="M172.002,32.746l-0.42,1.236l0.072,0c0.36,-0.66 0.768,-1.344 1.068,-1.716c0.384,-0.48 0.708,-0.768 1.068,-0.768c0.384,0 0.552,0.337 0.552,0.673c0,0.372 -0.276,0.959 -0.648,0.959c-0.144,0 -0.192,-0.132 -0.241,-0.348c-0.047,-0.239 -0.119,-0.36 -0.239,-0.36c-0.144,0 -0.42,0.264 -0.816,0.924c-0.445,0.72 -0.948,1.884 -1.44,3.024c-0.06,0.144 -0.216,0.192 -0.408,0.192c-0.24,0 -0.66,-0.072 -0.552,-0.408c0.264,-0.779 0.864,-2.448 1.2,-3.54c0.06,-0.192 0.047,-0.312 -0.072,-0.312c-0.264,0 -0.648,0.336 -0.936,0.672c-0.12,0 -0.217,-0.095 -0.192,-0.24c0.312,-0.54 0.912,-1.236 1.656,-1.236c0.648,0 0.54,0.696 0.348,1.248Z" style="fill:#fff;fill-rule:nonzero;"/><path d="M176.562,35.422c0.432,-0.624 1.008,-2.064 1.008,-2.844c0,-0.323 -0.048,-0.648 -0.384,-0.648c-0.216,0 -0.468,0.132 -0.78,0.529c-0.564,0.731 -1.188,2.159 -1.188,3.047c0,0.36 0.156,0.624 0.432,0.624c0.288,0 0.552,-0.192 0.912,-0.708Zm-1.188,-3.12c0.696,-0.636 1.284,-0.804 1.824,-0.804c1.067,0 1.488,0.732 1.476,1.632c-0.013,0.745 -0.372,1.836 -1.177,2.604c-0.695,0.685 -1.367,0.828 -1.896,0.828c-1.007,0 -1.511,-0.696 -1.487,-1.572c0.024,-0.876 0.527,-2.004 1.26,-2.688Z" style="fill:#fff;fill-rule:nonzero;"/><path d="M181.074,29.866c0,-0.384 0.275,-0.828 0.779,-0.828c0.349,0 0.553,0.192 0.553,0.564c0,0.432 -0.325,0.828 -0.781,0.828c-0.36,0 -0.551,-0.264 -0.551,-0.564Zm-4.261,8.976c0,-0.36 0.301,-0.551 0.493,-0.551c0.084,0 0.204,0.011 0.275,0.131c0.312,0.528 0.564,0.684 0.732,0.684c0.144,0 0.264,-0.12 0.421,-0.516c0.336,-0.804 0.96,-2.795 1.296,-3.876c0.336,-1.056 0.648,-1.968 0.648,-2.16c0,-0.12 -0.037,-0.168 -0.108,-0.168c-0.241,0 -0.901,0.6 -1.153,0.865c-0.119,-0.025 -0.215,-0.169 -0.179,-0.288c0.312,-0.457 1.392,-1.465 2.279,-1.465c0.252,0 0.445,0.264 0.445,0.48c0,0.264 -0.264,1.2 -0.576,2.16c-0.325,0.984 -0.732,2.304 -1.068,3.168c-0.288,0.756 -0.697,1.489 -1.297,1.92c-0.312,0.228 -0.708,0.396 -1.188,0.396c-0.588,0 -1.02,-0.36 -1.02,-0.78Z" style="fill:#fff;fill-rule:nonzero;"/><path d="M184.733,32.41c-0.444,0.469 -0.732,1.104 -0.864,1.536c0.612,-0.216 0.984,-0.42 1.369,-0.816c0.299,-0.3 0.443,-0.708 0.443,-0.9c0,-0.156 -0.072,-0.3 -0.228,-0.3c-0.167,0 -0.419,0.144 -0.72,0.48Zm-2.34,2.845c0,-0.901 0.564,-2.245 1.705,-3.109c0.659,-0.492 1.224,-0.648 1.679,-0.648c0.576,0 0.961,0.432 0.961,0.828c0,1.08 -1.633,1.668 -2.965,2.028c-0.06,0.168 -0.108,0.444 -0.108,0.78c0,0.444 0.192,0.684 0.528,0.684c0.432,0 0.864,-0.252 1.416,-0.756c0.12,0 0.217,0.12 0.193,0.24c-0.648,0.9 -1.489,1.26 -2.281,1.26c-0.792,0 -1.128,-0.648 -1.128,-1.307Z" style="fill:#fff;fill-rule:nonzero;"/><path d="M186.713,35.242c0,-0.792 0.492,-1.98 1.356,-2.832c0.636,-0.624 1.272,-0.912 1.908,-0.912c0.624,0 1.044,0.337 1.032,0.816c0,0.468 -0.444,0.66 -0.72,0.66c-0.204,0 -0.348,-0.12 -0.359,-0.336c-0.025,-0.264 0.011,-0.66 -0.301,-0.66c-0.239,0 -0.552,0.24 -0.887,0.768c-0.373,0.589 -0.757,1.476 -0.757,2.352c0,0.54 0.204,0.72 0.492,0.72c0.36,0 0.792,-0.228 1.285,-0.731c0.143,0 0.239,0.095 0.215,0.239c-0.443,0.588 -1.319,1.236 -2.208,1.236c-0.648,0 -1.056,-0.456 -1.056,-1.32Z" style="fill:#fff;fill-rule:nonzero;"/><path d="M193.493,32.266l-1.08,3.109c-0.072,0.191 -0.048,0.287 0.072,0.287c0.192,0 0.888,-0.528 1.32,-1.008c0.144,0.024 0.216,0.097 0.192,0.265c-0.528,0.792 -1.704,1.643 -2.472,1.643c-0.24,0 -0.432,-0.216 -0.432,-0.408c0,-0.168 0.036,-0.336 0.144,-0.66l1.104,-3.228l-0.912,0c-0.072,-0.108 0,-0.312 0.12,-0.384l1.008,-0.192l0.768,-1.164c0.072,-0.048 0.168,-0.06 0.288,-0.06c0.168,0 0.336,0.06 0.384,0.156l-0.336,1.116l1.2,0c0.144,0.144 0.048,0.456 -0.096,0.528l-1.272,0Z" style="fill:#fff;fill-rule:nonzero;"/><path d="M126.907,44.866c0,-0.384 0.275,-0.828 0.779,-0.828c0.349,0 0.553,0.192 0.553,0.564c0,0.432 -0.325,0.828 -0.781,0.828c-0.36,0 -0.551,-0.264 -0.551,-0.564Zm-0.577,5.628c-0.047,0.12 -0.06,0.228 0.037,0.228c0.191,0 0.852,-0.456 1.199,-0.828c0.133,0 0.228,0.12 0.204,0.24c-0.336,0.504 -1.487,1.428 -2.4,1.428c-0.204,0 -0.384,-0.264 -0.384,-0.372c0,-0.132 0.025,-0.264 0.109,-0.468l1.332,-3.156c0.047,-0.12 0.047,-0.192 -0.025,-0.192c-0.144,0 -0.648,0.312 -1.032,0.648c-0.12,0 -0.204,-0.143 -0.168,-0.24c0.648,-0.756 1.668,-1.284 2.208,-1.284c0.168,0 0.36,0.168 0.396,0.337c0.024,0.095 -0.023,0.263 -0.132,0.515l-1.344,3.144Z" style="fill:#fff;fill-rule:nonzero;"/><path d="M127.758,50.782c0,-0.264 0.192,-0.576 0.456,-0.576c0.096,0 0.18,0.072 0.264,0.169c0.312,0.336 0.576,0.539 0.912,0.539c0.252,0 0.48,-0.18 0.48,-0.432c0,-0.395 -0.372,-0.815 -0.601,-1.103c-0.336,-0.433 -0.504,-0.841 -0.504,-1.141c0,-0.504 0.265,-0.912 0.696,-1.284c0.336,-0.288 0.769,-0.456 1.08,-0.456c0.553,0 0.961,0.408 0.961,0.828c0,0.324 -0.265,0.504 -0.384,0.504c-0.108,0 -0.192,-0.048 -0.265,-0.144c-0.336,-0.384 -0.528,-0.515 -0.839,-0.515c-0.264,0 -0.408,0.203 -0.408,0.372c0,0.395 0.396,0.743 0.612,1.031c0.348,0.469 0.528,0.805 0.516,1.272c-0.012,0.409 -0.217,0.865 -0.672,1.236c-0.36,0.3 -0.84,0.48 -1.344,0.48c-0.504,0 -0.96,-0.36 -0.96,-0.78Z" style="fill:#fff;fill-rule:nonzero;"/><path d="M133.938,50.782c0,-0.264 0.192,-0.576 0.456,-0.576c0.096,0 0.18,0.072 0.264,0.169c0.312,0.336 0.576,0.539 0.912,0.539c0.252,0 0.48,-0.18 0.48,-0.432c0,-0.395 -0.372,-0.815 -0.6,-1.103c-0.336,-0.433 -0.504,-0.841 -0.504,-1.141c0,-0.504 0.264,-0.912 0.696,-1.284c0.336,-0.288 0.768,-0.456 1.08,-0.456c0.552,0 0.96,0.408 0.96,0.828c0,0.324 -0.264,0.504 -0.384,0.504c-0.108,0 -0.192,-0.048 -0.264,-0.144c-0.336,-0.384 -0.528,-0.515 -0.84,-0.515c-0.264,0 -0.408,0.203 -0.408,0.372c0,0.395 0.396,0.743 0.612,1.031c0.348,0.469 0.528,0.805 0.516,1.272c-0.012,0.409 -0.216,0.865 -0.672,1.236c-0.36,0.3 -0.84,0.48 -1.344,0.48c-0.504,0 -0.96,-0.36 -0.96,-0.78Z" style="fill:#fff;fill-rule:nonzero;"/><path d="M139.254,47.674c0.072,-0.192 0.06,-0.312 -0.036,-0.312c-0.24,0 -0.78,0.468 -1.104,0.804c-0.12,-0.024 -0.216,-0.096 -0.192,-0.24c0.384,-0.552 1.404,-1.428 2.28,-1.428c0.24,0 0.456,0.216 0.456,0.432c0,0.048 -0.024,0.192 -0.072,0.325l-1.236,3.084c-0.084,0.215 -0.036,0.335 0.084,0.335c0.144,0 0.456,-0.252 0.876,-0.648c0.996,-0.96 1.788,-2.508 2.256,-3.479c0.096,-0.037 0.216,-0.049 0.36,-0.049c0.264,0 0.54,0.12 0.6,0.24c-0.3,0.78 -0.936,2.352 -1.416,3.66c-0.072,0.192 -0.06,0.324 0.06,0.324c0.216,0 0.84,-0.528 1.152,-0.876c0.12,0 0.216,0.048 0.216,0.216c-0.336,0.588 -1.488,1.5 -2.328,1.5c-0.264,0 -0.468,-0.24 -0.36,-0.528l0.744,-1.932l-0.024,0c-0.756,1.008 -2.16,2.46 -2.952,2.46c-0.336,0 -0.576,-0.288 -0.576,-0.576c0,-0.168 0.06,-0.372 0.144,-0.588l1.068,-2.724Z" style="fill:#fff;fill-rule:nonzero;"/><path d="M145.434,50.47c-0.048,0.144 -0.048,0.288 0.036,0.42c0.06,0.096 0.192,0.24 0.36,0.24c0.18,0 0.684,-0.18 1.092,-0.78c0.492,-0.732 0.768,-1.595 0.768,-2.256c0,-0.648 -0.408,-0.923 -0.816,-0.923c-0.12,0 -0.192,0.011 -0.264,0.023l-1.176,3.276Zm1.296,-3.756c0.12,-0.024 0.24,-0.024 0.384,-0.024c1.056,0 1.848,0.504 1.848,1.548c0,0.876 -0.528,1.776 -1.248,2.448c-0.672,0.636 -1.56,0.876 -2.112,0.876c-0.12,0 -0.264,-0.048 -0.408,-0.096c-0.096,0.024 -0.156,0.096 -0.192,0.216l-0.516,1.525c-0.228,0.659 -0.24,0.876 0.192,0.911l0.504,0.049c0.096,0.071 0.072,0.275 -0.072,0.323c-0.984,0 -1.992,0.036 -2.976,0.12c-0.12,-0.072 -0.144,-0.264 -0.048,-0.348l0.336,-0.048c0.576,-0.084 0.66,-0.335 0.888,-0.984l2.076,-5.856c-0.384,0.072 -0.792,0.264 -1.2,0.48c-0.144,-0.024 -0.216,-0.192 -0.144,-0.288c0.384,-0.288 1.008,-0.612 1.536,-0.756l0.36,-0.9c0.072,-0.096 0.24,-0.12 0.456,-0.12c0.288,0 0.552,0.12 0.6,0.216l-0.264,0.708Z" style="fill:#fff;fill-rule:nonzero;"/><path d="M151.026,50.47c-0.048,0.144 -0.048,0.288 0.036,0.42c0.06,0.096 0.192,0.24 0.36,0.24c0.18,0 0.684,-0.18 1.092,-0.78c0.492,-0.732 0.768,-1.595 0.768,-2.256c0,-0.648 -0.408,-0.923 -0.816,-0.923c-0.12,0 -0.192,0.011 -0.264,0.023l-1.176,3.276Zm1.296,-3.756c0.12,-0.024 0.24,-0.024 0.384,-0.024c1.056,0 1.848,0.504 1.848,1.548c0,0.876 -0.528,1.776 -1.248,2.448c-0.672,0.636 -1.56,0.876 -2.112,0.876c-0.12,0 -0.264,-0.048 -0.408,-0.096c-0.096,0.024 -0.156,0.096 -0.192,0.216l-0.516,1.525c-0.228,0.659 -0.24,0.876 0.192,0.911l0.504,0.049c0.096,0.071 0.072,0.275 -0.072,0.323c-0.984,0 -1.992,0.036 -2.976,0.12c-0.12,-0.072 -0.144,-0.264 -0.048,-0.348l0.336,-0.048c0.576,-0.084 0.66,-0.335 0.888,-0.984l2.076,-5.856c-0.384,0.072 -0.792,0.264 -1.2,0.48c-0.144,-0.024 -0.216,-0.192 -0.144,-0.288c0.384,-0.288 1.008,-0.612 1.536,-0.756l0.36,-0.9c0.072,-0.096 0.24,-0.12 0.456,-0.12c0.288,0 0.552,0.12 0.6,0.216l-0.264,0.708Z" style="fill:#fff;fill-rule:nonzero;"/><path d="M157.566,50.422c0.432,-0.624 1.008,-2.064 1.008,-2.844c0,-0.323 -0.048,-0.648 -0.384,-0.648c-0.216,0 -0.468,0.132 -0.78,0.529c-0.564,0.731 -1.188,2.159 -1.188,3.047c0,0.36 0.156,0.624 0.432,0.624c0.288,0 0.552,-0.192 0.912,-0.708Zm-1.188,-3.12c0.696,-0.636 1.284,-0.804 1.824,-0.804c1.068,0 1.488,0.732 1.476,1.632c-0.012,0.745 -0.372,1.836 -1.176,2.604c-0.696,0.685 -1.368,0.828 -1.896,0.828c-1.008,0 -1.512,-0.696 -1.488,-1.572c0.024,-0.876 0.528,-2.004 1.26,-2.688Z" style="fill:#fff;fill-rule:nonzero;"/><path d="M162.39,47.746l-0.42,1.236l0.072,0c0.36,-0.66 0.768,-1.344 1.068,-1.716c0.384,-0.48 0.708,-0.768 1.068,-0.768c0.384,0 0.552,0.337 0.552,0.673c0,0.372 -0.277,0.959 -0.648,0.959c-0.144,0 -0.192,-0.132 -0.24,-0.348c-0.048,-0.239 -0.12,-0.36 -0.24,-0.36c-0.144,0 -0.421,0.264 -0.816,0.924c-0.444,0.72 -0.948,1.884 -1.44,3.024c-0.06,0.144 -0.216,0.192 -0.408,0.192c-0.24,0 -0.66,-0.072 -0.552,-0.408c0.264,-0.779 0.864,-2.448 1.2,-3.54c0.06,-0.192 0.048,-0.312 -0.072,-0.312c-0.264,0 -0.648,0.336 -0.937,0.672c-0.119,0 -0.215,-0.095 -0.191,-0.24c0.312,-0.54 0.912,-1.236 1.656,-1.236c0.648,0 0.54,0.696 0.348,1.248Z" style="fill:#fff;fill-rule:nonzero;"/><path d="M167.165,47.266l-1.079,3.109c-0.072,0.191 -0.049,0.287 0.072,0.287c0.191,0 0.888,-0.528 1.319,-1.008c0.144,0.024 0.217,0.097 0.193,0.265c-0.529,0.792 -1.704,1.643 -2.472,1.643c-0.241,0 -0.433,-0.216 -0.433,-0.408c0,-0.168 0.037,-0.336 0.145,-0.66l1.104,-3.228l-0.913,0c-0.071,-0.108 0,-0.312 0.121,-0.384l1.007,-0.192l0.768,-1.164c0.073,-0.048 0.168,-0.06 0.289,-0.06c0.167,0 0.335,0.06 0.384,0.156l-0.337,1.116l1.201,0c0.144,0.144 0.047,0.456 -0.097,0.528l-1.272,0Z" style="fill:#fff;fill-rule:nonzero;"/><path d="M170.453,47.41c-0.443,0.469 -0.731,1.104 -0.864,1.536c0.613,-0.216 0.985,-0.42 1.368,-0.816c0.3,-0.3 0.444,-0.708 0.444,-0.9c0,-0.156 -0.072,-0.3 -0.228,-0.3c-0.168,0 -0.42,0.144 -0.72,0.48Zm-2.339,2.845c0,-0.901 0.564,-2.245 1.703,-3.109c0.66,-0.492 1.224,-0.648 1.68,-0.648c0.577,0 0.96,0.432 0.96,0.828c0,1.08 -1.631,1.668 -2.963,2.028c-0.061,0.168 -0.108,0.444 -0.108,0.78c0,0.444 0.191,0.684 0.527,0.684c0.433,0 0.864,-0.252 1.416,-0.756c0.121,0 0.216,0.12 0.192,0.24c-0.648,0.9 -1.487,1.26 -2.279,1.26c-0.792,0 -1.128,-0.648 -1.128,-1.307Z" style="fill:#fff;fill-rule:nonzero;"/><path d="M175.505,47.314c-0.347,0.313 -0.996,1.056 -1.416,1.776c-0.48,0.804 -0.696,1.428 -0.696,1.692c0,0.144 0.072,0.216 0.168,0.216c0.24,0 1.008,-0.492 1.644,-1.188c0.636,-0.696 1.032,-1.452 1.2,-2.028c0.132,-0.48 0.025,-0.852 -0.216,-0.852c-0.18,0 -0.42,0.144 -0.684,0.384Zm1.224,-0.479l0.84,-2.437c0.193,-0.552 0.204,-0.72 0.012,-0.84l-0.288,-0.192c-0.048,-0.071 -0.024,-0.168 0.048,-0.216c0.288,-0.12 1.248,-0.311 1.8,-0.336c0.048,0.025 0.096,0.072 0.096,0.096c-0.216,0.6 -0.347,1.032 -0.66,1.848c-0.479,1.272 -1.632,4.789 -1.751,5.184c-0.084,0.288 -0.145,0.468 -0.168,0.588c-0.025,0.108 0,0.204 0.095,0.204c0.144,0 0.816,-0.456 1.2,-0.912c0.121,0 0.192,0.072 0.192,0.216c-0.312,0.54 -1.344,1.524 -2.255,1.524c-0.289,0 -0.433,-0.216 -0.433,-0.395c0,-0.204 0.072,-0.456 0.204,-0.805l0.396,-1.08l-0.023,0c-0.708,1.044 -1.681,2.28 -2.893,2.28c-0.528,0 -0.84,-0.395 -0.828,-0.996c0.013,-0.912 0.624,-2.208 1.572,-3.036c0.804,-0.695 1.572,-1.032 2.22,-1.032c0.241,0 0.504,0.144 0.624,0.337Z" style="fill:#fff;fill-rule:nonzero;"/><path d="M183.449,48.37c-0.66,0.828 -0.948,1.692 -0.948,2.196c0,0.372 0.168,0.564 0.336,0.564c0.204,0 0.624,-0.264 1.056,-0.755c0.816,-0.949 1.512,-2.305 1.512,-2.881c0,-0.3 -0.168,-0.42 -0.36,-0.42c-0.312,0 -0.912,0.42 -1.596,1.296Zm1.86,1.836c-0.888,0.924 -1.896,1.356 -2.736,1.356c-0.768,0 -1.176,-0.456 -1.176,-1.14c0,-0.528 0.204,-1.236 0.528,-2.087l1.476,-3.925c0.216,-0.564 0.228,-0.732 0.036,-0.852l-0.288,-0.192c-0.024,-0.071 -0.024,-0.168 0.048,-0.216c0.312,-0.12 1.272,-0.311 1.848,-0.336c0.048,0.025 0.084,0.072 0.084,0.12c-0.228,0.576 -0.408,1.008 -0.648,1.62l-1.464,3.804l0.024,0c0.72,-1.032 1.548,-1.86 2.388,-1.86c0.864,0 1.128,0.624 1.128,1.14c0,0.672 -0.36,1.644 -1.248,2.568Z" style="fill:#fff;fill-rule:nonzero;"/><path d="M189.305,48.61c0.012,0.804 -0.024,1.668 -0.156,2.496l0.048,0c0.456,-0.767 0.792,-1.727 1.056,-2.687c0.132,-0.481 0.252,-1.225 0.264,-1.465c0.024,-0.36 0.18,-0.432 0.348,-0.432c0.144,0 0.324,0.048 0.444,0.12c0.108,0.072 0.156,0.168 0.156,0.312c0,0.264 -0.36,1.752 -1.416,3.576c-0.552,0.936 -1.2,2.017 -2.04,2.94c-0.852,0.936 -1.536,1.152 -2.016,1.152c-0.42,0 -0.78,-0.276 -0.78,-0.636c-0.012,-0.408 0.276,-0.672 0.6,-0.672c0.192,0 0.288,0.096 0.408,0.252c0.156,0.204 0.252,0.324 0.42,0.324c0.18,0 0.456,-0.084 0.672,-0.3c0.288,-0.288 0.576,-0.816 0.732,-1.44c0.156,-0.576 0.24,-1.452 0.204,-2.64c-0.036,-1.38 -0.18,-2.064 -0.444,-2.064c-0.252,0 -0.516,0.468 -0.732,0.924c-0.12,0.072 -0.288,0 -0.312,-0.119c0.228,-0.733 0.768,-1.753 1.596,-1.753c0.636,0 0.924,0.876 0.948,2.112Z" style="fill:#fff;fill-rule:nonzero;"/><path d="M194.261,46.57c0,0.528 -0.384,0.912 -0.84,0.912c-0.408,0 -0.672,-0.264 -0.672,-0.696c0,-0.504 0.36,-0.936 0.864,-0.936c0.408,0 0.648,0.288 0.648,0.72Zm-1.272,4.08c0,0.528 -0.384,0.912 -0.84,0.912c-0.408,0 -0.672,-0.264 -0.672,-0.696c0,-0.504 0.36,-0.936 0.864,-0.936c0.408,0 0.648,0.288 0.648,0.72Z" style="fill:#fff;fill-rule:nonzero;"/><path d="M200.738,58.524l0,-48.341" style="fill:none;stroke:#fff;stroke-width:0.63px;"/><path d="M213.206,30.143c0,1.754 0.033,1.987 1.002,2.088l0.535,0.05c0.1,0.066 0.066,0.367 -0.034,0.417c-0.952,-0.033 -1.52,-0.05 -2.188,-0.05c-0.668,0 -1.252,0.017 -2.321,0.05c-0.1,-0.05 -0.134,-0.334 0,-0.417l0.601,-0.05c0.952,-0.084 1.036,-0.334 1.036,-2.088l0,-7.465c0,-0.517 0,-0.535 -0.501,-0.535l-0.919,0c-0.718,0 -1.636,0.034 -2.054,0.418c-0.401,0.367 -0.568,0.735 -0.751,1.153c-0.134,0.1 -0.368,0.017 -0.435,-0.118c0.268,-0.751 0.518,-1.82 0.635,-2.488c0.05,-0.033 0.267,-0.05 0.317,0c0.1,0.535 0.652,0.518 1.42,0.518l6.763,0c0.902,0 1.052,-0.034 1.303,-0.467c0.083,-0.033 0.267,-0.018 0.3,0.05c-0.183,0.684 -0.3,2.038 -0.25,2.538c-0.067,0.133 -0.351,0.133 -0.435,0.033c-0.049,-0.417 -0.167,-1.035 -0.417,-1.219c-0.384,-0.283 -1.019,-0.418 -1.937,-0.418l-1.186,0c-0.501,0 -0.484,0.018 -0.484,0.569l0,7.431Z" style="fill:#fff;fill-rule:nonzero;"/><path d="M219.552,23.229c0,-0.984 -0.017,-1.086 -0.518,-1.386l-0.167,-0.1c-0.083,-0.05 -0.083,-0.283 0,-0.334c0.418,-0.133 1.203,-0.384 1.804,-0.701c0.067,0 0.134,0.033 0.167,0.099c-0.017,0.502 -0.05,1.336 -0.05,2.072l0,3.506c0,0.151 0.017,0.285 0.066,0.318c0.602,-0.468 1.403,-0.868 2.255,-0.868c1.587,0 2.155,0.985 2.155,2.154l0,2.789c0,1.202 0.033,1.386 0.634,1.453l0.451,0.05c0.117,0.083 0.083,0.367 -0.034,0.417c-0.601,-0.033 -1.085,-0.05 -1.67,-0.05c-0.601,0 -1.102,0.017 -1.553,0.05c-0.117,-0.05 -0.15,-0.334 -0.033,-0.417l0.334,-0.05c0.618,-0.101 0.635,-0.251 0.635,-1.453l0,-2.389c0,-1.068 -0.518,-1.787 -1.587,-1.787c-0.568,0 -1.002,0.201 -1.302,0.451c-0.301,0.251 -0.351,0.334 -0.351,0.919l0,2.806c0,1.202 0.033,1.369 0.634,1.453l0.351,0.05c0.117,0.066 0.083,0.367 -0.033,0.417c-0.501,-0.033 -0.986,-0.05 -1.57,-0.05c-0.601,0 -1.102,0.017 -1.637,0.05c-0.117,-0.05 -0.15,-0.334 -0.033,-0.417l0.417,-0.05c0.618,-0.067 0.635,-0.251 0.635,-1.453l0,-7.549Z" style="fill:#fff;fill-rule:nonzero;"/><path d="M229.888,27.872c1.236,0 1.604,-0.067 1.738,-0.167c0.049,-0.033 0.1,-0.101 0.1,-0.318c0,-0.466 -0.318,-1.051 -1.285,-1.051c-0.987,0 -1.838,0.901 -1.855,1.452c0,0.034 0,0.084 0.117,0.084l1.185,0Zm-1.035,0.501c-0.433,0 -0.451,0.034 -0.451,0.451c0,1.686 0.986,3.123 2.773,3.123c0.551,0 1.018,-0.167 1.535,-0.818c0.168,-0.05 0.285,0.049 0.301,0.2c-0.551,1.135 -1.752,1.552 -2.621,1.552c-1.085,0 -1.937,-0.466 -2.422,-1.101c-0.501,-0.651 -0.701,-1.437 -0.701,-2.172c0,-2.053 1.352,-3.773 3.357,-3.773c1.436,0 2.371,0.985 2.371,1.987c0,0.233 -0.033,0.367 -0.066,0.434c-0.051,0.1 -0.285,0.117 -0.986,0.117l-3.09,0Z" style="fill:#fff;fill-rule:nonzero;"/><path d="M248.593,29.809c0,0.501 0,2.488 0.049,2.922c-0.033,0.101 -0.133,0.184 -0.316,0.184c-0.202,-0.284 -0.686,-0.868 -2.139,-2.522l-3.873,-4.408c-0.451,-0.518 -1.586,-1.887 -1.938,-2.254l-0.033,0c-0.066,0.199 -0.084,0.584 -0.084,1.085l0,3.641c0,0.784 0.033,2.956 0.301,3.456c0.117,0.183 0.434,0.285 0.851,0.318l0.518,0.05c0.1,0.134 0.084,0.334 -0.033,0.417c-0.752,-0.033 -1.336,-0.05 -1.953,-0.05c-0.701,0 -1.153,0.017 -1.739,0.05c-0.115,-0.083 -0.132,-0.317 -0.033,-0.417l0.451,-0.05c0.385,-0.033 0.653,-0.15 0.735,-0.334c0.234,-0.601 0.219,-2.639 0.219,-3.44l0,-4.827c0,-0.467 -0.018,-0.818 -0.37,-1.202c-0.232,-0.234 -0.632,-0.351 -1.035,-0.401l-0.283,-0.033c-0.1,-0.101 -0.1,-0.351 0.033,-0.417c0.701,0.049 1.586,0.049 1.887,0.049c0.268,0 0.551,-0.016 0.769,-0.049c0.334,0.851 2.321,3.054 2.856,3.674l1.619,1.82c1.135,1.302 1.971,2.221 2.756,3.021l0.033,0c0.067,-0.083 0.067,-0.349 0.067,-0.701l0,-3.573c0,-0.785 -0.016,-2.956 -0.334,-3.457c-0.1,-0.15 -0.368,-0.251 -1.036,-0.334l-0.283,-0.033c-0.117,-0.101 -0.101,-0.368 0.033,-0.417c0.768,0.033 1.336,0.049 1.971,0.049c0.717,0 1.152,-0.016 1.719,-0.049c0.135,0.083 0.135,0.316 0.035,0.417l-0.234,0.033c-0.535,0.083 -0.869,0.218 -0.936,0.351c-0.283,0.601 -0.25,2.671 -0.25,3.44l0,3.991Z" style="fill:#fff;fill-rule:nonzero;"/><path d="M254.036,27.288c-0.132,0.384 -0.117,0.4 0.352,0.4l2.053,0c0.484,0 0.519,-0.066 0.368,-0.517l-0.901,-2.723c-0.135,-0.401 -0.284,-0.852 -0.385,-1.051l-0.033,0c-0.051,0.083 -0.217,0.483 -0.401,0.984l-1.053,2.907Zm3.307,1.486c-0.117,-0.367 -0.183,-0.418 -0.683,-0.418l-2.522,0c-0.418,0 -0.52,0.051 -0.635,0.4l-0.586,1.754c-0.25,0.752 -0.367,1.204 -0.367,1.387c0,0.199 0.084,0.301 0.485,0.334l0.55,0.05c0.117,0.083 0.117,0.35 -0.033,0.417c-0.434,-0.033 -0.951,-0.033 -1.736,-0.05c-0.551,0 -1.153,0.033 -1.604,0.05c-0.099,-0.067 -0.133,-0.334 -0.033,-0.417l0.551,-0.05c0.402,-0.033 0.769,-0.218 1.002,-0.818c0.301,-0.769 0.769,-1.854 1.47,-3.725l1.704,-4.509c0.234,-0.6 0.334,-0.919 0.283,-1.185c0.4,-0.117 0.685,-0.417 0.869,-0.635c0.1,0 0.217,0.033 0.25,0.15c0.217,0.736 0.484,1.503 0.734,2.238l2.289,6.714c0.485,1.436 0.702,1.686 1.418,1.77l0.452,0.05c0.117,0.083 0.084,0.35 0,0.417c-0.685,-0.033 -1.271,-0.05 -2.021,-0.05c-0.802,0 -1.436,0.033 -1.922,0.05c-0.132,-0.067 -0.147,-0.334 -0.032,-0.417l0.484,-0.05c0.352,-0.033 0.586,-0.135 0.586,-0.301c0,-0.183 -0.084,-0.484 -0.219,-0.884l-0.734,-2.272Z" style="fill:#fff;fill-rule:nonzero;"/><path d="M265.929,30.143c0,1.754 0.033,1.987 1.002,2.088l0.535,0.05c0.1,0.066 0.067,0.367 -0.033,0.417c-0.953,-0.033 -1.52,-0.05 -2.188,-0.05c-0.667,0 -1.253,0.017 -2.322,0.05c-0.099,-0.05 -0.133,-0.334 0,-0.417l0.602,-0.05c0.951,-0.084 1.035,-0.334 1.035,-2.088l0,-7.465c0,-0.517 0,-0.535 -0.5,-0.535l-0.92,0c-0.717,0 -1.637,0.034 -2.053,0.418c-0.403,0.367 -0.568,0.735 -0.752,1.153c-0.134,0.1 -0.367,0.017 -0.433,-0.118c0.265,-0.751 0.517,-1.82 0.634,-2.488c0.049,-0.033 0.265,-0.05 0.316,0c0.1,0.535 0.651,0.518 1.421,0.518l6.763,0c0.901,0 1.051,-0.034 1.303,-0.467c0.082,-0.033 0.266,-0.018 0.299,0.05c-0.184,0.684 -0.299,2.038 -0.25,2.538c-0.066,0.133 -0.35,0.133 -0.434,0.033c-0.05,-0.417 -0.168,-1.035 -0.418,-1.219c-0.384,-0.283 -1.017,-0.418 -1.937,-0.418l-1.186,0c-0.5,0 -0.484,0.018 -0.484,0.569l0,7.431Z" style="fill:#fff;fill-rule:nonzero;"/><path d="M281.111,27.604c0,-2.755 -1.219,-5.727 -4.409,-5.727c-1.738,0 -3.992,1.185 -3.992,4.842c0,2.472 1.203,5.678 4.492,5.678c2.004,0 3.909,-1.502 3.909,-4.793Zm-10.071,-0.349c0,-3.34 2.506,-5.896 5.946,-5.896c3.857,0 5.795,2.789 5.795,5.728c0,3.374 -2.573,5.828 -5.795,5.828c-3.707,0 -5.946,-2.655 -5.946,-5.66Z" style="fill:#fff;fill-rule:nonzero;"/><path d="M291.482,32.915c-1.537,0 -2.488,-0.434 -2.84,-0.634c-0.316,-0.368 -0.535,-1.569 -0.535,-2.706c0.117,-0.217 0.502,-0.234 0.635,-0.05c0.334,1.085 1.453,2.622 2.873,2.622c1.236,0 1.802,-0.851 1.802,-1.686c0,-1.353 -1.267,-2.155 -2.269,-2.656c-1.203,-0.601 -2.506,-1.603 -2.524,-3.257c0,-1.886 1.454,-3.189 3.875,-3.189c0.551,0 1.237,0.067 1.905,0.267c0.216,0.067 0.367,0.1 0.568,0.134c0.133,0.368 0.299,1.269 0.299,2.388c-0.082,0.2 -0.5,0.217 -0.651,0.05c-0.283,-0.852 -1.002,-2.07 -2.205,-2.07c-1.101,0 -1.703,0.717 -1.703,1.552c0,0.768 0.686,1.47 1.52,1.905l1.103,0.584c1.035,0.55 2.354,1.519 2.354,3.356c0,2.054 -1.686,3.39 -4.207,3.39Z" style="fill:#94b9e2;fill-rule:nonzero;"/><path d="M302.62,26.018c0.217,0.184 0.35,0.418 0.35,0.869c0,0.5 -0.232,0.952 -0.434,0.952c-0.084,0 -0.234,-0.034 -0.267,-0.084c-0.467,-0.668 -1.119,-1.252 -1.721,-1.252c-1.084,0 -1.67,1.236 -1.67,2.388c0,1.319 0.852,2.655 2.389,2.655c0.617,0 1.119,-0.201 1.486,-0.819c0.201,-0.015 0.434,0.101 0.434,0.367c-0.367,0.836 -1.369,1.787 -2.955,1.787c-2.104,0 -3.541,-1.402 -3.541,-3.373c0,-2.371 1.922,-3.773 4.176,-3.773c0.568,0 1.302,0.116 1.753,0.283Z" style="fill:#94b9e2;fill-rule:nonzero;"/><path d="M306.896,22.678c0,0.852 -0.652,1.286 -1.32,1.286c-0.768,0 -1.237,-0.534 -1.237,-1.252c0,-0.768 0.619,-1.286 1.321,-1.286c0.734,0 1.236,0.551 1.236,1.252Zm-0.201,8.034c0,1.168 0.066,1.301 0.617,1.369l0.318,0.033c0.133,0.1 0.133,0.484 -0.017,0.584c-0.584,-0.033 -1.235,-0.05 -2.004,-0.05c-0.752,0 -1.453,0.017 -2.004,0.05c-0.151,-0.1 -0.151,-0.484 -0.016,-0.584l0.317,-0.033c0.55,-0.068 0.617,-0.201 0.617,-1.369l0,-2.523c0,-0.668 0,-0.851 -0.317,-1.069l-0.234,-0.15c-0.117,-0.1 -0.117,-0.401 0,-0.501c0.785,-0.216 1.971,-0.668 2.473,-0.968c0.133,0 0.232,0.049 0.3,0.15c-0.033,0.501 -0.05,1.236 -0.05,1.987l0,3.074Z" style="fill:#94b9e2;fill-rule:nonzero;"/><path d="M312.005,27.956c0.233,0 0.5,-0.034 0.684,-0.151c0.084,-0.05 0.117,-0.216 0.117,-0.384c0,-0.551 -0.316,-0.918 -0.885,-0.918c-0.701,0 -1.303,0.668 -1.303,1.202c0,0.233 0.235,0.251 0.768,0.251l0.619,0Zm-1.103,0.734c-0.383,0 -0.416,0.033 -0.416,0.301c0,1.252 0.8,2.472 2.353,2.472c0.469,0 1.102,-0.101 1.553,-0.869c0.184,-0.033 0.436,0.1 0.436,0.384c-0.686,1.419 -1.922,1.903 -2.924,1.903c-2.254,0 -3.473,-1.585 -3.473,-3.406c0,-2.104 1.52,-3.74 3.607,-3.74c1.737,0 2.672,1.118 2.672,2.404c0,0.318 -0.084,0.551 -0.601,0.551l-3.207,0Z" style="fill:#94b9e2;fill-rule:nonzero;"/><path d="M316.314,28.189c0,-0.668 0,-0.851 -0.317,-1.069l-0.234,-0.15c-0.117,-0.1 -0.117,-0.401 0,-0.501c0.785,-0.216 1.986,-0.668 2.471,-0.968c0.134,0 0.234,0.049 0.3,0.15c0,0.233 -0.048,0.635 -0.048,0.752c0,0.1 0.033,0.133 0.082,0.133c0.05,0 0.216,-0.084 0.318,-0.133c0.367,-0.218 1.152,-0.668 1.92,-0.668c1.387,0 2.088,0.951 2.088,2.104l0,2.873c0,1.168 0.066,1.301 0.668,1.369l0.267,0.033c0.133,0.1 0.133,0.484 -0.017,0.584c-0.518,-0.033 -1.219,-0.05 -2.022,-0.05c-0.668,0 -1.318,0.017 -1.802,0.05c-0.151,-0.1 -0.151,-0.484 -0.018,-0.584l0.301,-0.051c0.385,-0.05 0.451,-0.183 0.451,-1.101l0,-2.823c0,-0.651 -0.334,-1.185 -1.168,-1.185c-0.469,0 -0.803,0.217 -0.936,0.4c-0.099,0.117 -0.132,0.318 -0.132,0.618l0,2.99c0,0.918 0.066,1.051 0.482,1.119l0.268,0.033c0.134,0.1 0.134,0.484 -0.016,0.584c-0.518,-0.033 -1.053,-0.05 -1.853,-0.05c-0.702,0 -1.387,0.017 -1.971,0.05c-0.151,-0.1 -0.151,-0.484 -0.018,-0.584l0.268,-0.033c0.601,-0.068 0.668,-0.201 0.668,-1.369l0,-2.523Z" style="fill:#94b9e2;fill-rule:nonzero;"/><path d="M330.542,26.018c0.217,0.184 0.35,0.418 0.35,0.869c0,0.5 -0.232,0.952 -0.434,0.952c-0.084,0 -0.234,-0.034 -0.267,-0.084c-0.467,-0.668 -1.119,-1.252 -1.721,-1.252c-1.084,0 -1.67,1.236 -1.67,2.388c0,1.319 0.852,2.655 2.389,2.655c0.617,0 1.119,-0.201 1.486,-0.819c0.201,-0.015 0.434,0.101 0.434,0.367c-0.367,0.836 -1.369,1.787 -2.955,1.787c-2.104,0 -3.541,-1.402 -3.541,-3.373c0,-2.371 1.921,-3.773 4.175,-3.773c0.569,0 1.303,0.116 1.754,0.283Z" style="fill:#94b9e2;fill-rule:nonzero;"/><path d="M335.152,27.956c0.232,0 0.5,-0.034 0.683,-0.151c0.084,-0.05 0.117,-0.216 0.117,-0.384c0,-0.551 -0.316,-0.918 -0.884,-0.918c-0.701,0 -1.303,0.668 -1.303,1.202c0,0.233 0.234,0.251 0.768,0.251l0.619,0Zm-1.104,0.734c-0.383,0 -0.416,0.033 -0.416,0.301c0,1.252 0.801,2.472 2.354,2.472c0.468,0 1.101,-0.101 1.552,-0.869c0.184,-0.033 0.436,0.1 0.436,0.384c-0.686,1.419 -1.922,1.903 -2.924,1.903c-2.254,0 -3.472,-1.585 -3.472,-3.406c0,-2.104 1.519,-3.74 3.607,-3.74c1.736,0 2.672,1.118 2.672,2.404c0,0.318 -0.084,0.551 -0.602,0.551l-3.207,0Z" style="fill:#94b9e2;fill-rule:nonzero;"/><path d="M345.505,26.77c-0.285,0 -0.285,0.033 -0.285,0.485l0,3.523c0,1.202 0.033,1.402 0.635,1.453l0.601,0.05c0.118,0.083 0.084,0.367 -0.033,0.417c-0.752,-0.033 -1.236,-0.05 -1.82,-0.05c-0.602,0 -1.102,0.017 -1.604,0.05c-0.117,-0.05 -0.15,-0.334 -0.033,-0.417l0.385,-0.05c0.617,-0.084 0.635,-0.251 0.635,-1.453l0,-3.523c0,-0.452 0,-0.485 -0.334,-0.485l-0.586,0c-0.1,-0.067 -0.117,-0.217 -0.049,-0.318l0.717,-0.35c0.134,-0.067 0.252,-0.168 0.252,-0.334c0,-0.969 0.115,-2.004 0.517,-2.939c0.416,-0.952 1.352,-2.121 3.006,-2.121c0.885,0 1.637,0.4 1.637,1.002c0,0.334 -0.318,0.601 -0.635,0.601c-0.183,0 -0.285,-0.066 -0.402,-0.201c-0.317,-0.367 -0.783,-0.734 -1.336,-0.734c-0.518,0 -0.934,0.317 -1.186,0.918c-0.301,0.768 -0.367,1.988 -0.367,2.822l0,0.484c0,0.451 0,0.469 0.285,0.469l1.903,0c0.183,0.166 0.068,0.634 -0.118,0.701l-1.785,0Z" style="fill:#fff;fill-rule:nonzero;"/><path d="M351.183,26.336c-1.104,0 -1.922,1.051 -1.922,2.889c0,1.52 0.686,3.156 2.154,3.156c1.471,0 1.922,-1.537 1.922,-2.822c0,-1.42 -0.568,-3.223 -2.154,-3.223Zm3.59,2.956c0,2.088 -1.436,3.589 -3.524,3.589c-1.92,0 -3.423,-1.352 -3.423,-3.439c0,-2.104 1.585,-3.607 3.556,-3.607c1.871,0 3.391,1.402 3.391,3.457Z" style="fill:#fff;fill-rule:nonzero;"/><path d="M356.994,27.855c0,-0.651 0,-0.735 -0.452,-1.035l-0.15,-0.101c-0.066,-0.066 -0.066,-0.25 0.018,-0.3c0.384,-0.133 1.269,-0.568 1.685,-0.819c0.084,0.018 0.135,0.051 0.135,0.117l0,0.969c0,0.084 0.015,0.134 0.051,0.151c0.584,-0.485 1.218,-1.002 1.836,-1.002c0.417,0 0.751,0.267 0.751,0.668c0,0.55 -0.451,0.767 -0.718,0.767c-0.166,0 -0.25,-0.049 -0.367,-0.116c-0.25,-0.167 -0.5,-0.267 -0.735,-0.267c-0.267,0 -0.469,0.15 -0.601,0.334c-0.166,0.233 -0.217,0.717 -0.217,1.285l0,2.272c0,1.202 0.033,1.402 0.668,1.453l0.601,0.05c0.118,0.083 0.082,0.367 -0.033,0.417c-0.785,-0.033 -1.269,-0.05 -1.853,-0.05c-0.602,0 -1.104,0.017 -1.537,0.05c-0.118,-0.05 -0.151,-0.334 -0.034,-0.417l0.317,-0.05c0.619,-0.101 0.635,-0.251 0.635,-1.453l0,-2.923Z" style="fill:#fff;fill-rule:nonzero;"/><path d="M367.146,24.332c0,-1.687 -0.033,-1.87 -0.735,-1.971l-0.517,-0.067c-0.15,-0.083 -0.15,-0.451 0.033,-0.568c1.104,-0.083 2.406,-0.149 3.857,-0.149c1.42,0 2.356,0.166 3.057,0.433c1.02,0.384 2.037,1.27 2.037,2.889c0,2.739 -2.756,3.14 -3.64,3.14c-0.2,0 -0.35,0 -0.534,-0.017c-0.134,-0.084 -0.168,-0.35 -0.05,-0.451c1.386,-0.434 1.67,-1.419 1.67,-2.654c0,-1.237 -0.635,-2.573 -2.137,-2.573c-0.619,0 -0.653,0.184 -0.653,0.852l0,7.047c0,1.554 0.1,1.67 0.852,1.804l0.535,0.083c0.184,0.084 0.184,0.468 0,0.568c-0.935,-0.033 -1.754,-0.05 -2.554,-0.05c-0.803,0 -1.604,0.017 -2.506,0.05c-0.184,-0.1 -0.217,-0.484 -0.033,-0.568l0.466,-0.083c0.752,-0.134 0.852,-0.25 0.852,-1.804l0,-5.911Z" style="fill:#94b9e2;fill-rule:nonzero;"/><path d="M378.39,27.956c0.232,0 0.5,-0.034 0.684,-0.151c0.084,-0.05 0.117,-0.216 0.117,-0.384c0,-0.551 -0.317,-0.918 -0.885,-0.918c-0.701,0 -1.303,0.668 -1.303,1.202c0,0.233 0.235,0.251 0.768,0.251l0.619,0Zm-1.104,0.734c-0.382,0 -0.416,0.033 -0.416,0.301c0,1.252 0.801,2.472 2.354,2.472c0.469,0 1.102,-0.101 1.553,-0.869c0.183,-0.033 0.435,0.1 0.435,0.384c-0.685,1.419 -1.922,1.903 -2.924,1.903c-2.254,0 -3.472,-1.585 -3.472,-3.406c0,-2.104 1.519,-3.74 3.607,-3.74c1.737,0 2.672,1.118 2.672,2.404c0,0.318 -0.084,0.551 -0.601,0.551l-3.208,0Z" style="fill:#94b9e2;fill-rule:nonzero;"/><path d="M385.486,29.926c0.017,-0.267 0,-0.318 -0.116,-0.3c-0.752,0.099 -1.404,0.383 -1.404,1.169c0,0.534 0.385,1.002 0.852,1.002c0.517,0 0.619,-0.301 0.634,-0.819l0.034,-1.052Zm2.004,0.434c-0.049,1.136 0.418,1.437 0.752,1.437c0.201,0 0.367,-0.05 0.634,-0.201c0.151,0.034 0.25,0.234 0.202,0.384c-0.202,0.267 -0.987,0.901 -1.938,0.901c-0.584,0 -0.953,-0.2 -1.402,-0.584c-0.118,-0.099 -0.184,-0.133 -0.268,-0.133c-0.084,0 -0.184,0.067 -0.352,0.183c-0.3,0.218 -0.8,0.534 -1.419,0.534c-0.967,0 -1.87,-0.584 -1.87,-1.752c0,-0.853 0.518,-1.371 1.737,-1.738c0.635,-0.2 1.101,-0.334 1.57,-0.467c0.301,-0.084 0.383,-0.201 0.4,-0.334c0.018,-0.183 0.034,-0.367 0.034,-0.568c0,-0.635 -0.25,-1.435 -0.969,-1.435c-0.4,0 -0.752,0.233 -0.867,0.951c-0.035,0.267 -0.135,0.418 -0.285,0.535c-0.25,0.183 -0.901,0.384 -1.202,0.384c-0.285,0 -0.384,-0.185 -0.384,-0.418c0,-0.435 0.4,-0.968 0.8,-1.286c0.569,-0.451 1.621,-1.018 2.807,-1.018c1.402,0 2.221,0.701 2.137,2.421l-0.117,2.204Z" style="fill:#94b9e2;fill-rule:nonzero;"/><path d="M395.14,26.018c0.217,0.184 0.35,0.418 0.35,0.869c0,0.5 -0.233,0.952 -0.434,0.952c-0.084,0 -0.234,-0.034 -0.268,-0.084c-0.466,-0.668 -1.119,-1.252 -1.72,-1.252c-1.084,0 -1.67,1.236 -1.67,2.388c0,1.319 0.851,2.655 2.388,2.655c0.618,0 1.12,-0.201 1.487,-0.819c0.201,-0.015 0.433,0.101 0.433,0.367c-0.367,0.836 -1.369,1.787 -2.955,1.787c-2.103,0 -3.541,-1.402 -3.541,-3.373c0,-2.371 1.922,-3.773 4.176,-3.773c0.568,0 1.303,0.116 1.754,0.283Z" style="fill:#94b9e2;fill-rule:nonzero;"/><path d="M399.747,27.956c0.235,0 0.502,-0.034 0.686,-0.151c0.082,-0.05 0.117,-0.216 0.117,-0.384c0,-0.551 -0.318,-0.918 -0.887,-0.918c-0.701,0 -1.302,0.668 -1.302,1.202c0,0.233 0.234,0.251 0.769,0.251l0.617,0Zm-1.101,0.734c-0.385,0 -0.418,0.033 -0.418,0.301c0,1.252 0.801,2.472 2.355,2.472c0.467,0 1.102,-0.101 1.553,-0.869c0.184,-0.033 0.434,0.1 0.434,0.384c-0.684,1.419 -1.92,1.903 -2.922,1.903c-2.254,0 -3.475,-1.585 -3.475,-3.406c0,-2.104 1.52,-3.74 3.608,-3.74c1.736,0 2.671,1.118 2.671,2.404c0,0.318 -0.082,0.551 -0.601,0.551l-3.205,0Z" style="fill:#94b9e2;fill-rule:nonzero;"/><path d="M209.983,50.682c0.334,0 0.851,-0.25 1.018,-0.418c0.201,-0.2 0.218,-0.433 0.218,-0.785l0.033,-0.984c0,-0.184 -0.067,-0.217 -0.167,-0.217c-0.1,0 -0.384,0.066 -0.685,0.166c-0.985,0.334 -1.469,0.585 -1.469,1.236c0,0.284 0.2,1.002 1.052,1.002Zm1.035,-2.939c0.251,-0.084 0.268,-0.234 0.284,-0.485l0.017,-0.767c0.017,-0.618 -0.184,-1.453 -1.219,-1.453c-0.468,0 -1.036,0.234 -1.069,0.752c-0.017,0.266 -0.034,0.466 -0.167,0.567c-0.25,0.2 -0.702,0.317 -0.952,0.317c-0.15,0 -0.234,-0.084 -0.234,-0.234c0,-0.868 1.887,-2.054 3.107,-2.054c1.202,0 1.786,0.702 1.736,1.954l-0.1,2.906c-0.033,0.768 0.117,1.453 0.768,1.453c0.167,0 0.318,-0.05 0.418,-0.101c0.083,-0.05 0.167,-0.117 0.217,-0.117c0.066,0 0.117,0.102 0.117,0.218c0,0.083 -0.585,0.735 -1.403,0.735c-0.401,0 -0.802,-0.15 -1.086,-0.517c-0.066,-0.102 -0.166,-0.235 -0.267,-0.235c-0.117,0 -0.317,0.151 -0.651,0.334c-0.368,0.2 -0.735,0.418 -1.203,0.418c-0.483,0 -0.884,-0.135 -1.169,-0.385c-0.317,-0.283 -0.517,-0.701 -0.517,-1.169c0,-0.651 0.317,-1.035 1.386,-1.418l1.987,-0.719Z" style="fill:#fff;fill-rule:nonzero;"/><path d="M215.444,46.407c0,-0.652 0,-0.735 -0.451,-1.035l-0.151,-0.1c-0.066,-0.067 -0.066,-0.251 0.017,-0.301c0.384,-0.134 1.336,-0.568 1.67,-0.818c0.067,0 0.151,0.033 0.184,0.116c-0.033,0.384 -0.033,0.635 -0.033,0.785c0,0.101 0.066,0.184 0.183,0.184c0.701,-0.435 1.486,-0.852 2.338,-0.852c1.386,0 1.954,0.953 1.954,2.072l0,2.871c0,1.203 0.033,1.37 0.634,1.453l0.368,0.051c0.117,0.084 0.084,0.367 -0.034,0.418c-0.501,-0.035 -0.985,-0.051 -1.569,-0.051c-0.602,0 -1.102,0.016 -1.553,0.051c-0.117,-0.051 -0.151,-0.334 -0.034,-0.418l0.318,-0.051c0.617,-0.1 0.634,-0.25 0.634,-1.453l0,-2.489c0,-0.951 -0.434,-1.652 -1.57,-1.652c-0.634,0 -1.186,0.268 -1.419,0.584c-0.217,0.284 -0.25,0.518 -0.25,1.002l0,2.555c0,1.203 0.033,1.353 0.634,1.453l0.301,0.051c0.116,0.084 0.083,0.367 -0.034,0.418c-0.451,-0.035 -0.935,-0.051 -1.52,-0.051c-0.601,0 -1.102,0.016 -1.569,0.051c-0.117,-0.051 -0.151,-0.334 -0.034,-0.418l0.351,-0.051c0.618,-0.083 0.635,-0.25 0.635,-1.453l0,-2.922Z" style="fill:#fff;fill-rule:nonzero;"/><path d="M228.42,46.256c0,-0.334 -0.067,-0.484 -0.184,-0.65c-0.251,-0.351 -0.752,-0.702 -1.403,-0.702c-1.52,0 -2.304,1.319 -2.304,2.772c0,1.52 0.851,2.955 2.487,2.955c0.452,0 1.02,-0.199 1.287,-0.466c0.099,-0.101 0.117,-0.352 0.117,-0.618l0,-3.291Zm1.236,2.506c0,1.319 0.015,1.937 0.484,1.937c0.184,0 0.467,-0.083 0.717,-0.167c0.117,0.033 0.135,0.451 -0.016,0.534c-0.701,0.101 -1.737,0.351 -2.204,0.534c-0.1,0 -0.184,-0.05 -0.184,-0.133l0,-0.284c0,-0.251 0,-0.451 -0.033,-0.517l-0.067,0c-0.735,0.501 -1.303,0.768 -2.105,0.768c-1.853,0 -3.089,-1.453 -3.089,-3.207c0,-2.338 1.77,-3.841 4.042,-3.841c0.567,0 0.935,0.083 1.118,0.151c0.083,0 0.101,-0.101 0.101,-0.234l0,-2.521c0,-0.986 -0.018,-1.086 -0.518,-1.387l-0.167,-0.099c-0.084,-0.051 -0.084,-0.286 0,-0.334c0.417,-0.135 1.202,-0.385 1.803,-0.703c0.067,0 0.133,0.035 0.166,0.101c-0.015,0.5 -0.048,1.336 -0.048,2.07l0,7.332Z" style="fill:#fff;fill-rule:nonzero;"/><path d="M239.175,51.467c-1.537,0 -2.488,-0.434 -2.84,-0.634c-0.316,-0.368 -0.535,-1.571 -0.535,-2.705c0.117,-0.218 0.502,-0.235 0.635,-0.051c0.334,1.086 1.453,2.622 2.873,2.622c1.236,0 1.803,-0.852 1.803,-1.687c0,-1.353 -1.268,-2.154 -2.27,-2.655c-1.203,-0.602 -2.506,-1.603 -2.523,-3.257c0,-1.886 1.453,-3.189 3.875,-3.189c0.551,0 1.236,0.066 1.904,0.267c0.217,0.067 0.367,0.1 0.568,0.133c0.133,0.367 0.299,1.27 0.299,2.389c-0.082,0.2 -0.5,0.217 -0.65,0.05c-0.283,-0.852 -1.002,-2.072 -2.205,-2.072c-1.102,0 -1.703,0.719 -1.703,1.554c0,0.769 0.685,1.47 1.519,1.903l1.104,0.585c1.035,0.552 2.353,1.52 2.353,3.357c0,2.054 -1.685,3.39 -4.207,3.39Z" style="fill:#94b9e2;fill-rule:nonzero;"/><path d="M247.775,46.506c0.234,0 0.502,-0.033 0.685,-0.149c0.082,-0.05 0.117,-0.218 0.117,-0.384c0,-0.551 -0.318,-0.919 -0.886,-0.919c-0.701,0 -1.303,0.668 -1.303,1.202c0,0.235 0.234,0.25 0.77,0.25l0.617,0Zm-1.102,0.736c-0.385,0 -0.418,0.034 -0.418,0.301c0,1.253 0.801,2.471 2.356,2.471c0.466,0 1.101,-0.1 1.552,-0.869c0.184,-0.033 0.434,0.101 0.434,0.385c-0.684,1.42 -1.92,1.904 -2.922,1.904c-2.254,0 -3.474,-1.587 -3.474,-3.407c0,-2.105 1.519,-3.741 3.607,-3.741c1.736,0 2.672,1.119 2.672,2.405c0,0.317 -0.082,0.551 -0.602,0.551l-3.205,0Z" style="fill:#94b9e2;fill-rule:nonzero;"/><path d="M257.126,44.57c0.217,0.184 0.351,0.417 0.351,0.868c0,0.502 -0.233,0.952 -0.435,0.952c-0.082,0 -0.233,-0.033 -0.265,-0.083c-0.469,-0.668 -1.119,-1.253 -1.721,-1.253c-1.086,0 -1.67,1.236 -1.67,2.388c0,1.32 0.852,2.656 2.389,2.656c0.617,0 1.116,-0.201 1.486,-0.818c0.199,-0.018 0.434,0.1 0.434,0.367c-0.368,0.834 -1.369,1.787 -2.957,1.787c-2.104,0 -3.539,-1.403 -3.539,-3.374c0,-2.371 1.919,-3.774 4.173,-3.774c0.569,0 1.303,0.117 1.754,0.284Z" style="fill:#94b9e2;fill-rule:nonzero;"/><path d="M265.494,48.995c0,0.986 0.05,1.42 0.451,1.42c0.216,0 0.466,-0.067 0.668,-0.133c0.15,0.033 0.166,0.635 -0.051,0.718c-1.637,0.066 -3.039,0.6 -3.09,0.6c-0.117,-0.016 -0.184,-0.099 -0.199,-0.2c0.033,-0.2 0.049,-0.468 0.049,-0.601c0,-0.1 -0.082,-0.168 -0.184,-0.168c-0.65,0.418 -1.234,0.803 -2.271,0.803c-1.385,0 -1.954,-0.719 -1.954,-2.138l0,-2.838c0,-0.886 -0.099,-0.953 -0.5,-1.086l-0.218,-0.067c-0.116,-0.15 -0.101,-0.468 0.067,-0.585c0.552,-0.016 1.136,-0.067 1.62,-0.15c0.501,-0.083 0.985,-0.284 1.052,-0.284c0.101,0 0.184,0.117 0.199,0.201c-0.032,0.417 -0.048,0.868 -0.048,1.469l0,2.756c0,0.801 0.117,1.502 1.186,1.502c0.467,0 0.734,-0.216 0.867,-0.317c0.117,-0.084 0.184,-0.334 0.184,-0.501l0,-3.156c0,-0.668 -0.116,-0.818 -0.717,-0.901l-0.235,-0.034c-0.132,-0.117 -0.117,-0.517 0.084,-0.585c0.602,-0.033 1.202,-0.1 1.737,-0.167c0.584,-0.084 1.086,-0.267 1.185,-0.267c0.067,0 0.151,0.084 0.168,0.201c-0.017,0.301 -0.05,0.852 -0.05,1.469l0,3.039Z" style="fill:#94b9e2;fill-rule:nonzero;"/><path d="M268.115,46.774c0,-0.668 0,-0.852 -0.317,-1.068l-0.234,-0.151c-0.117,-0.099 -0.117,-0.4 0,-0.501c0.769,-0.217 1.922,-0.668 2.439,-1.002c0.133,0 0.233,0.05 0.301,0.151c-0.035,0.334 -0.068,0.567 -0.068,0.718c0,0.117 0.033,0.167 0.168,0.201c0.451,-0.285 0.935,-0.836 1.636,-0.836c0.452,0 0.918,0.351 0.918,0.986c0,0.768 -0.535,1.085 -1.068,1.085c-0.234,0 -0.434,-0.101 -0.652,-0.301c-0.383,-0.317 -0.534,-0.334 -0.635,-0.334c-0.233,0 -0.317,0.367 -0.317,1.002l0,2.572c0,1.169 0.067,1.302 0.618,1.353l0.535,0.05c0.133,0.1 0.133,0.484 -0.018,0.585c-0.801,-0.033 -1.469,-0.051 -2.254,-0.051c-0.683,0 -1.42,0.018 -1.97,0.051c-0.151,-0.101 -0.151,-0.485 -0.016,-0.585l0.316,-0.033c0.551,-0.068 0.618,-0.201 0.618,-1.37l0,-2.522Z" style="fill:#94b9e2;fill-rule:nonzero;"/><path d="M276.683,41.23c0,0.852 -0.652,1.286 -1.32,1.286c-0.768,0 -1.237,-0.535 -1.237,-1.253c0,-0.768 0.619,-1.286 1.321,-1.286c0.734,0 1.236,0.551 1.236,1.253Zm-0.201,8.032c0,1.17 0.066,1.303 0.617,1.369l0.318,0.035c0.133,0.1 0.133,0.483 -0.017,0.585c-0.584,-0.035 -1.235,-0.051 -2.004,-0.051c-0.752,0 -1.453,0.016 -2.004,0.051c-0.15,-0.102 -0.15,-0.485 -0.016,-0.585l0.317,-0.035c0.551,-0.066 0.617,-0.199 0.617,-1.369l0,-2.521c0,-0.668 0,-0.852 -0.316,-1.069l-0.235,-0.15c-0.117,-0.1 -0.117,-0.4 0,-0.501c0.785,-0.218 1.971,-0.668 2.473,-0.969c0.133,0 0.232,0.05 0.301,0.151c-0.034,0.501 -0.051,1.235 -0.051,1.987l0,3.072Z" style="fill:#94b9e2;fill-rule:nonzero;"/><path d="M281.374,45.422c-0.216,0 -0.234,0.016 -0.234,0.383l0,2.506c0,0.935 0,1.971 1.17,1.971c0.232,0 0.5,-0.117 0.701,-0.251c0.166,0.05 0.268,0.233 0.233,0.434c-0.467,0.5 -1.37,0.969 -2.405,0.969c-1.385,0 -1.869,-0.803 -1.869,-1.904l0,-3.725c0,-0.349 -0.018,-0.383 -0.318,-0.383l-0.518,0c-0.183,-0.067 -0.234,-0.401 -0.1,-0.518c0.518,-0.184 0.985,-0.484 1.385,-0.751c0.301,-0.218 0.719,-0.568 1.237,-1.303c0.117,-0.066 0.418,-0.051 0.502,0.083l0,1.253c0,0.317 0.015,0.334 0.316,0.334l1.486,0c0.084,0.067 0.135,0.167 0.135,0.317c0,0.184 -0.051,0.484 -0.219,0.585l-1.502,0Z" style="fill:#94b9e2;fill-rule:nonzero;"/><path d="M282.978,45.054c-0.117,-0.116 -0.117,-0.517 0.051,-0.585c0.599,0.034 1.318,0.051 2.203,0.051c0.619,0 1.252,-0.017 1.871,-0.051c0.166,0.068 0.183,0.469 0.051,0.585l-0.334,0.068c-0.469,0.099 -0.502,0.166 -0.502,0.316c0,0.201 0.183,0.635 0.502,1.486c0.183,0.468 0.55,1.487 0.75,1.905c0.183,-0.352 0.351,-0.735 0.517,-1.103l0.301,-0.684c0.352,-0.802 0.619,-1.503 0.619,-1.687c0,-0.117 -0.168,-0.2 -0.369,-0.233l-0.334,-0.068c-0.148,-0.116 -0.133,-0.534 0.051,-0.585c0.367,0.034 0.869,0.051 1.621,0.051c0.434,0 0.867,-0.017 1.301,-0.051c0.168,0.068 0.183,0.485 0.035,0.585l-0.318,0.034c-0.334,0.049 -0.618,0.167 -0.768,0.368c-0.201,0.266 -0.602,0.984 -0.986,1.753l-0.885,1.82c-0.584,1.202 -1.938,4.024 -2.539,5.261c-0.35,0.751 -0.817,1.085 -1.436,1.101c-0.902,0.017 -1.068,-0.551 -1.068,-1.002c0,-0.501 0.367,-0.868 0.951,-0.868l0.402,0c0.401,0 0.651,-0.134 0.817,-0.35c0.185,-0.251 0.318,-0.569 0.484,-0.919c0.102,-0.201 0.235,-0.501 0.235,-0.702c0,-0.216 -0.051,-0.534 -0.317,-1.218l-1.603,-4.042c-0.301,-0.801 -0.469,-1.085 -1.002,-1.186l-0.301,-0.05Z" style="fill:#94b9e2;fill-rule:nonzero;"/><path d="M298.759,48.695c0,1.753 0.033,1.971 1.102,2.087l0.451,0.051c0.099,0.084 0.066,0.367 -0.033,0.418c-0.951,-0.035 -1.504,-0.051 -2.172,-0.051c-0.701,0 -1.303,0.016 -2.037,0.051c-0.1,-0.051 -0.133,-0.319 -0.034,-0.418l0.352,-0.051c0.969,-0.133 1.002,-0.334 1.002,-2.087l0,-6.162c0,-1.42 -0.033,-1.72 -0.785,-1.787l-0.602,-0.068c-0.117,-0.099 -0.099,-0.349 0.033,-0.417c0.885,-0.116 1.92,-0.133 3.307,-0.133c1.387,0 2.422,0.183 3.207,0.668c0.768,0.484 1.336,1.353 1.336,2.505c0,1.536 -0.953,2.305 -1.67,2.655c-0.734,0.351 -1.621,0.502 -2.305,0.502c-0.117,-0.051 -0.117,-0.301 -0.017,-0.334c1.805,-0.334 2.455,-1.354 2.455,-2.807c0,-1.619 -0.951,-2.672 -2.688,-2.672c-0.886,0 -0.902,0.068 -0.902,0.602l0,7.448Z" style="fill:#fff;fill-rule:nonzero;"/><path d="M305.56,46.407c0,-0.652 0,-0.735 -0.451,-1.035l-0.151,-0.1c-0.066,-0.067 -0.066,-0.251 0.016,-0.301c0.385,-0.134 1.27,-0.568 1.687,-0.818c0.084,0.016 0.133,0.05 0.133,0.116l0,0.969c0,0.083 0.018,0.134 0.051,0.15c0.584,-0.484 1.219,-1.002 1.838,-1.002c0.416,0 0.75,0.267 0.75,0.668c0,0.552 -0.451,0.769 -0.717,0.769c-0.168,0 -0.252,-0.051 -0.367,-0.117c-0.252,-0.167 -0.502,-0.268 -0.736,-0.268c-0.266,0 -0.467,0.151 -0.6,0.334c-0.168,0.234 -0.219,0.719 -0.219,1.286l0,2.271c0,1.203 0.034,1.403 0.668,1.453l0.602,0.051c0.117,0.084 0.084,0.367 -0.033,0.418c-0.786,-0.035 -1.27,-0.051 -1.854,-0.051c-0.601,0 -1.101,0.016 -1.537,0.051c-0.115,-0.051 -0.15,-0.334 -0.033,-0.418l0.318,-0.051c0.617,-0.1 0.635,-0.25 0.635,-1.453l0,-2.922Z" style="fill:#fff;fill-rule:nonzero;"/><path d="M313.31,44.887c-1.102,0 -1.92,1.053 -1.92,2.889c0,1.52 0.684,3.156 2.154,3.156c1.469,0 1.92,-1.536 1.92,-2.822c0,-1.419 -0.568,-3.223 -2.154,-3.223Zm3.59,2.956c0,2.087 -1.436,3.591 -3.524,3.591c-1.92,0 -3.422,-1.353 -3.422,-3.441c0,-2.104 1.586,-3.607 3.557,-3.607c1.869,0 3.389,1.404 3.389,3.457Z" style="fill:#fff;fill-rule:nonzero;"/><path d="M322.478,46.958c0,-1.135 -0.467,-2.087 -1.486,-2.087c-0.801,0 -1.403,0.735 -1.403,1.87c0,1.185 0.719,1.954 1.52,1.954c0.902,0 1.369,-0.718 1.369,-1.737Zm-1.035,4.776c-0.533,0 -1.201,0.033 -1.436,0.184c-0.4,0.251 -0.803,0.768 -0.803,1.403c0,0.901 0.719,1.653 2.239,1.653c1.486,0 2.472,-0.835 2.472,-1.787c0,-1.018 -0.703,-1.453 -1.904,-1.453l-0.568,0Zm3.49,-6.747c0.184,0.084 0.15,0.652 -0.1,0.685l-1.203,0c0.033,0.284 0.033,0.568 0.033,0.852c0,1.152 -0.683,2.655 -2.804,2.655c-0.301,0 -0.535,-0.034 -0.735,-0.049c-0.201,0.116 -0.736,0.433 -0.736,0.917c0,0.385 0.385,0.702 1.17,0.702c0.568,0 1.252,-0.05 1.986,-0.05c0.936,0 2.34,0.167 2.34,1.837c0,1.82 -1.988,3.156 -4.16,3.156c-2.053,0 -2.772,-1.103 -2.772,-1.937c0,-0.267 0.067,-0.485 0.184,-0.618c0.285,-0.3 0.752,-0.735 1.137,-1.119c0.15,-0.15 0.283,-0.301 0.133,-0.4c-0.651,-0.168 -1.219,-0.736 -1.219,-1.321c0,-0.083 0.066,-0.15 0.25,-0.283c0.283,-0.183 0.601,-0.467 0.885,-0.768c0.084,-0.101 0.168,-0.234 0.168,-0.318c-0.569,-0.3 -1.252,-0.951 -1.252,-2.02c0,-1.437 1.234,-2.522 2.72,-2.522c0.635,0 1.219,0.167 1.604,0.334c0.535,0.234 0.65,0.267 1.019,0.267l1.352,0Z" style="fill:#fff;fill-rule:nonzero;"/><path d="M326.57,46.407c0,-0.652 0,-0.735 -0.452,-1.035l-0.15,-0.1c-0.066,-0.067 -0.066,-0.251 0.018,-0.301c0.384,-0.134 1.269,-0.568 1.685,-0.818c0.084,0.016 0.135,0.05 0.135,0.116l0,0.969c0,0.083 0.016,0.134 0.051,0.15c0.584,-0.484 1.219,-1.002 1.836,-1.002c0.418,0 0.752,0.267 0.752,0.668c0,0.552 -0.451,0.769 -0.719,0.769c-0.166,0 -0.25,-0.051 -0.367,-0.117c-0.25,-0.167 -0.5,-0.268 -0.735,-0.268c-0.267,0 -0.468,0.151 -0.601,0.334c-0.166,0.234 -0.217,0.719 -0.217,1.286l0,2.271c0,1.203 0.033,1.403 0.668,1.453l0.602,0.051c0.117,0.084 0.082,0.367 -0.034,0.418c-0.785,-0.035 -1.269,-0.051 -1.853,-0.051c-0.602,0 -1.104,0.016 -1.537,0.051c-0.118,-0.051 -0.151,-0.334 -0.034,-0.418l0.317,-0.051c0.619,-0.1 0.635,-0.25 0.635,-1.453l0,-2.922Z" style="fill:#fff;fill-rule:nonzero;"/><path d="M333.4,50.682c0.334,0 0.851,-0.25 1.019,-0.418c0.199,-0.2 0.217,-0.433 0.217,-0.785l0.033,-0.984c0,-0.184 -0.066,-0.217 -0.168,-0.217c-0.099,0 -0.383,0.066 -0.683,0.166c-0.987,0.334 -1.471,0.585 -1.471,1.236c0,0.284 0.201,1.002 1.053,1.002Zm1.035,-2.939c0.25,-0.084 0.267,-0.234 0.285,-0.485l0.016,-0.767c0.017,-0.618 -0.184,-1.453 -1.219,-1.453c-0.469,0 -1.035,0.234 -1.068,0.752c-0.018,0.266 -0.034,0.466 -0.168,0.567c-0.25,0.2 -0.702,0.317 -0.952,0.317c-0.15,0 -0.234,-0.084 -0.234,-0.234c0,-0.868 1.887,-2.054 3.106,-2.054c1.203,0 1.787,0.702 1.738,1.954l-0.102,2.906c-0.033,0.768 0.117,1.453 0.77,1.453c0.166,0 0.316,-0.05 0.416,-0.101c0.084,-0.05 0.168,-0.117 0.219,-0.117c0.066,0 0.115,0.102 0.115,0.218c0,0.083 -0.584,0.735 -1.403,0.735c-0.4,0 -0.8,-0.15 -1.086,-0.517c-0.066,-0.102 -0.166,-0.235 -0.265,-0.235c-0.117,0 -0.319,0.151 -0.652,0.334c-0.368,0.2 -0.735,0.418 -1.202,0.418c-0.484,0 -0.886,-0.135 -1.17,-0.385c-0.316,-0.283 -0.517,-0.701 -0.517,-1.169c0,-0.651 0.316,-1.035 1.387,-1.418l1.986,-0.719Z" style="fill:#fff;fill-rule:nonzero;"/><path d="M347.712,46.908c0,-1.136 -0.502,-1.72 -1.552,-1.72c-0.635,0 -1.153,0.283 -1.387,0.584c-0.201,0.251 -0.25,0.418 -0.25,1.002l0,2.555c0,1.203 0.033,1.37 0.635,1.453l0.349,0.051c0.117,0.084 0.084,0.367 -0.033,0.418c-0.5,-0.035 -0.984,-0.051 -1.57,-0.051c-0.6,0 -1.051,0.016 -1.52,0.051c-0.117,-0.051 -0.15,-0.334 -0.033,-0.418l0.301,-0.051c0.617,-0.1 0.634,-0.25 0.634,-1.453l0,-2.421c0,-1.118 -0.502,-1.72 -1.537,-1.72c-0.683,0 -1.152,0.301 -1.402,0.602c-0.166,0.199 -0.25,0.417 -0.25,0.951l0,2.588c0,1.203 0.033,1.353 0.635,1.453l0.301,0.051c0.117,0.084 0.082,0.367 -0.034,0.418c-0.451,-0.035 -0.935,-0.051 -1.519,-0.051c-0.602,0 -1.104,0.016 -1.621,0.051c-0.117,-0.051 -0.151,-0.334 -0.033,-0.418l0.4,-0.051c0.619,-0.083 0.635,-0.25 0.635,-1.453l0,-2.922c0,-0.652 0,-0.735 -0.451,-1.035l-0.151,-0.1c-0.066,-0.067 -0.066,-0.251 0.018,-0.301c0.384,-0.134 1.336,-0.568 1.67,-0.818c0.066,0 0.15,0.033 0.183,0.116c-0.033,0.384 -0.033,0.635 -0.033,0.785c0,0.101 0.066,0.184 0.184,0.184c0.634,-0.45 1.42,-0.852 2.22,-0.852c0.836,0 1.303,0.301 1.77,0.986c0.15,0.033 0.267,-0.033 0.418,-0.134c0.668,-0.468 1.486,-0.852 2.271,-0.852c1.336,0 1.989,0.919 1.989,2.072l0,2.871c0,1.203 0.033,1.37 0.632,1.453l0.403,0.051c0.117,0.084 0.082,0.367 -0.033,0.418c-0.553,-0.035 -1.038,-0.051 -1.622,-0.051c-0.601,0 -1.05,0.016 -1.519,0.051c-0.117,-0.051 -0.15,-0.334 -0.033,-0.418l0.301,-0.051c0.617,-0.1 0.634,-0.25 0.634,-1.453l0,-2.421Z" style="fill:#fff;fill-rule:nonzero;"/><path d="M360.855,46.908c0,-1.136 -0.502,-1.72 -1.553,-1.72c-0.635,0 -1.152,0.283 -1.387,0.584c-0.201,0.251 -0.25,0.418 -0.25,1.002l0,2.555c0,1.203 0.034,1.37 0.635,1.453l0.35,0.051c0.117,0.084 0.084,0.367 -0.033,0.418c-0.5,-0.035 -0.985,-0.051 -1.571,-0.051c-0.599,0 -1.051,0.016 -1.519,0.051c-0.117,-0.051 -0.151,-0.334 -0.033,-0.418l0.3,-0.051c0.617,-0.1 0.635,-0.25 0.635,-1.453l0,-2.421c0,-1.118 -0.502,-1.72 -1.537,-1.72c-0.684,0 -1.152,0.301 -1.402,0.602c-0.166,0.199 -0.25,0.417 -0.25,0.951l0,2.588c0,1.203 0.033,1.353 0.634,1.453l0.301,0.051c0.117,0.084 0.082,0.367 -0.033,0.418c-0.451,-0.035 -0.936,-0.051 -1.52,-0.051c-0.601,0 -1.103,0.016 -1.621,0.051c-0.117,-0.051 -0.15,-0.334 -0.033,-0.418l0.4,-0.051c0.62,-0.083 0.635,-0.25 0.635,-1.453l0,-2.922c0,-0.652 0,-0.735 -0.451,-1.035l-0.15,-0.1c-0.067,-0.067 -0.067,-0.251 0.017,-0.301c0.385,-0.134 1.336,-0.568 1.67,-0.818c0.067,0 0.151,0.033 0.184,0.116c-0.033,0.384 -0.033,0.635 -0.033,0.785c0,0.101 0.066,0.184 0.183,0.184c0.635,-0.45 1.42,-0.852 2.221,-0.852c0.836,0 1.303,0.301 1.769,0.986c0.151,0.033 0.268,-0.033 0.418,-0.134c0.668,-0.468 1.487,-0.852 2.272,-0.852c1.336,0 1.988,0.919 1.988,2.072l0,2.871c0,1.203 0.033,1.37 0.633,1.453l0.402,0.051c0.118,0.084 0.082,0.367 -0.033,0.418c-0.553,-0.035 -1.037,-0.051 -1.621,-0.051c-0.602,0 -1.051,0.016 -1.52,0.051c-0.117,-0.051 -0.15,-0.334 -0.033,-0.418l0.301,-0.051c0.617,-0.1 0.635,-0.25 0.635,-1.453l0,-2.421Z" style="fill:#fff;fill-rule:nonzero;"/><path d="M366.716,46.423c1.236,0 1.604,-0.066 1.736,-0.167c0.051,-0.033 0.1,-0.099 0.1,-0.316c0,-0.469 -0.316,-1.053 -1.285,-1.053c-0.984,0 -1.836,0.903 -1.854,1.453c0,0.034 0,0.083 0.118,0.083l1.185,0Zm-1.035,0.501c-0.436,0 -0.451,0.034 -0.451,0.452c0,1.686 0.984,3.123 2.771,3.123c0.551,0 1.02,-0.167 1.537,-0.819c0.166,-0.05 0.284,0.05 0.301,0.2c-0.551,1.136 -1.754,1.554 -2.623,1.554c-1.084,0 -1.935,-0.469 -2.42,-1.102c-0.502,-0.652 -0.701,-1.437 -0.701,-2.171c0,-2.055 1.352,-3.775 3.356,-3.775c1.435,0 2.371,0.986 2.371,1.988c0,0.234 -0.034,0.367 -0.067,0.433c-0.051,0.101 -0.283,0.117 -0.984,0.117l-3.09,0Z" style="fill:#fff;fill-rule:nonzero;"/><defs><linearGradient id="_Linear1" x1="0" y1="0" x2="1" y2="0" gradientUnits="userSpaceOnUse" gradientTransform="matrix(-266.075,-266.075,266.075,-266.075,367.099035,167.287332)"><stop offset="0" style="stop-color:#002e66;stop-opacity:1"/><stop offset="0.23" style="stop-color:#004a91;stop-opacity:1"/><stop offset="0.62" style="stop-color:#118acb;stop-opacity:1"/><stop offset="1" style="stop-color:#004a91;stop-opacity:1"/></linearGradient></defs></svg>