<?xml version="1.0" encoding="UTF-8" standalone="no"?><!DOCTYPE svg PUBLIC "-//W3C//DTD SVG 1.1//EN" "http://www.w3.org/Graphics/SVG/1.1/DTD/svg11.dtd"><svg width="100%" height="100%" viewBox="0 0 602 218" version="1.1" xmlns="http://www.w3.org/2000/svg" xmlns:xlink="http://www.w3.org/1999/xlink" xml:space="preserve" xmlns:serif="http://www.serif.com/" style="fill-rule:evenodd;clip-rule:evenodd;stroke-linecap:round;stroke-linejoin:round;stroke-miterlimit:10;"><g id="LWPOLYLINE_4_"><path d="M87.572,116.4l-0.4,0l-0.7,0.2l-1.4,0.2l-3.3,0" style="fill:none;fill-rule:nonzero;stroke:#000;stroke-width:0.47px;"/></g><g id="LWPOLYLINE_5_"><path d="M61.972,143.4l-1.4,-0.2l-0.4,0l-0.2,0.1l-0.1,0l-0.1,0.1l-0.1,0.2l0,0.5l0.1,0.1l-0.2,0.1l-0.3,0l-0.3,0.1l-0.2,0.2l-0.2,0.1l-0.3,0.1l-0.3,0.2l-0.3,0.4l-0.4,0.3l-0.1,0.3l-0.1,0.2l0,0.7l0.1,0.4l0.4,0.4l0.1,0.3l0.2,0.3l0.3,0.2l0.3,0.3l0.4,0.3l0.2,0.1l0.5,0.2l0.6,0l0.3,-0.1l0.3,-0.2l0.3,-0.1l0.6,-0.3l0.3,-0.1l0.4,-0.1l0.5,-0.1l1.1,0l-0.4,-1.2l-0.5,-0.9l-0.4,-0.9l-0.3,-0.8l-0.1,-0.6l-0.2,-0.5l-0.1,-0.1Z" style="fill:none;fill-rule:nonzero;stroke:#333;stroke-width:0.67px;stroke-linecap:butt;stroke-linejoin:miter;"/></g><g id="LWPOLYLINE_6_"><path d="M92.272,115.3l-0.4,0l-0.4,0.1l-0.6,0l-0.6,0.2l-0.5,0.2l-0.6,0.2l-0.4,0.1l-0.3,0.1l-0.2,0.1l-0.3,0l-0.1,-0.2l-0.1,-0.1l-0.1,-0.3l0,-1.5l0.1,-0.8l0.4,-0.9l0.7,-2.5l0.2,-1.2l0,-0.8l-0.1,-0.7l-0.1,-0.4l-0.2,-0.6l-0.2,-0.3l-0.3,-0.2l-0.3,-0.1l-0.3,-0.2l-0.6,-0.2l-0.4,0l-0.4,0.1l-1,0l-0.4,0.1l-0.4,0l-0.6,-0.1l-0.8,0l-0.4,0.1l-0.2,0.1l-0.3,0.1l-0.1,0l-0.2,0.1l-0.1,0.2l-0.2,0.1l-0.4,0.8l-0.1,0.3l-0.1,0.5l0,1.3l0.1,0.7l0.2,0.8l0.2,0.9l0.2,0.6l0.3,0.7l0.2,0.7l0.1,0.8l0,0.9l-0.1,0.6l-0.4,0.7l-0.4,0.4l-0.5,0l-0.4,-0.1l-0.5,0l-0.5,0.1l-1.3,0l-1.6,0.4l0.6,-0.5l1,-1.5l0.4,-1.1l0.4,-1.2l0.3,-1.5l0.2,-1.4l0,-2l0.2,-1.3l0.5,-1.4l0.3,-0.8l1.1,-0.1l1.3,-0.1l1.1,-0.1l2.8,0l2,0.1l1.4,0.2l0.1,0.5l0.3,1.9l0.4,1.8l0.3,1.5l0,1.3l-0.1,0.5l0,0.4l-0.1,0.3l0,0.4l0.2,0.5l0.1,0.5l0.2,0.3l0.4,0.4l0.4,0.5Z" style="fill:#333;fill-rule:nonzero;"/></g><g id="LWPOLYLINE_7_"><path d="M87.572,116.4l-0.2,-0.6l-0.1,-0.5l0,-0.6l0.1,-0.6l0.1,-0.8l0.3,-0.9l0.7,-2.5l0.2,-1.1l0,-1.4l-0.2,-0.4l-0.2,-0.5l-0.1,-0.2l-0.2,-0.2l-0.2,-0.1l-0.3,-0.2l-0.3,0l-0.3,-0.1l-0.7,0l-0.6,0.1l-2.9,0l-0.4,0.2l-0.2,0l0,0.1l-0.2,0.2l-0.1,0l-0.2,0.4l-0.2,0.3l0,0.3l-0.1,0.4l-0.1,0.3l0.1,0.9l0.1,0.7l0.1,0.8l0.5,1.5l0.2,0.8l0.3,0.7l0.1,0.7l-0.1,1l0,0.7l-0.6,0.9l-0.1,0.1" style="fill:none;fill-rule:nonzero;stroke:#333;stroke-width:0.47px;"/></g><g id="LWPOLYLINE_8_"><path d="M82.472,113.7l0.3,0.2l0.3,0.3l0.2,0.1l0.3,0.1l0.2,0l0.5,0.1l0.5,0l0.4,-0.1l0.5,-0.1l0.4,-0.2l0.5,-0.4l0.6,-0.3" style="fill:none;fill-rule:nonzero;stroke:#333;stroke-width:0.67px;"/></g><g id="LWPOLYLINE_9_"><path d="M80.072,103.3l-0.7,-0.1l-0.6,-0.4l-0.4,-0.5l-0.3,-0.7l0,-0.8l0.1,-0.5l0.2,-0.5l0.4,-0.4l0.4,-0.3l0.5,-0.2l0.4,0l0.7,-0.1l0.7,-0.2l0.6,-0.3l0.4,-0.3l0.5,-0.4l0.3,-0.3l0.3,-0.5l0.2,-0.2l0.4,-0.3l0.9,-0.3l0.6,0.1l0.6,0.2l0.5,0.3l0.2,0.3l0.3,0.4l0,0.1l0.8,0.6l0.5,0.4l0.4,0.2l0.5,0.1l0.5,0.2l0.7,0l0.4,0.1l0.6,0.4l0.4,0.3l0.3,0.6l0.1,0.4l0,0.5l-0.1,0.6l-0.2,0.5l-0.3,0.3l-0.4,0.3l-0.6,0.4l-0.4,0l0,0.4l-0.1,0.3l-0.2,0.3l-0.1,0l-1,-0.1l-1.3,-0.2l-4.2,0l-1.5,0.1l-1.1,0.1l-0.6,0.1l-0.3,-0.3l0,-0.7Z" style="fill:#333;fill-rule:nonzero;"/></g><g id="LWPOLYLINE_10_"><path d="M116.572,93.6l0,18.3l0.6,-1.4l0.6,-0.9l0.6,-0.7l0.7,-0.5l0.9,-0.5l0.8,-0.3l1.2,-0.2l1.9,1.2l-1.9,1.2l-0.9,0.2l-0.6,0.1l-0.7,0.7l-0.5,0.8l-0.2,0.5l-0.2,0.6l-0.1,0.5l-0.1,0.6l-7.7,0l0,-2c0.1,-4.9 -3.9,-8.9 -8.8,-8.9c-1.8,0 -3.5,0.5 -4.9,1.5c-0.5,-7.1 -6.6,-12.6 -13.6,-12.1c-6.6,0.4 -11.7,5.6 -12.1,12.1c-4.1,-2.7 -9.6,-1.5 -12.3,2.5c-0.9,1.5 -1.5,3.2 -1.5,4.9l0,2l-7.7,0l-0.1,-0.6l-0.1,-0.5l-0.2,-0.6l-0.2,-0.5l-0.5,-0.8l-0.7,-0.7l-0.7,-0.4l-0.9,-0.2l-1.9,-1.2l1.9,-1.2l1.2,0.2l0.8,0.3l0.9,0.5l0.7,0.5l0.6,0.7l0.6,0.9l0.6,1.4l0,-18.3l1.2,-3.6l1.2,3.6l0,15.2c1.6,-6.4 7.9,-10.5 14.3,-9.5c1.7,-4.5 5.2,-8.1 9.8,-9.8c8.6,-3.2 18.3,1.2 21.6,9.8c6.6,-1.1 12.8,3 14.3,9.5l0,-15.2l1.2,-3.6l0.9,3.9Z" style="fill:none;fill-rule:nonzero;stroke:#000;stroke-width:0.67px;"/></g><g id="LWPOLYLINE_11_"><path d="M111.972,121.4l5.1,0l1.4,-6l-8.1,0l1.6,6Z" style="fill:none;fill-rule:nonzero;stroke:#000;stroke-width:0.67px;"/></g><g id="LWPOLYLINE_12_"><path d="M51.272,121.4l5.1,0l1.5,-6l-8.1,0l1.5,6Z" style="fill:none;fill-rule:nonzero;stroke:#000;stroke-width:0.67px;"/></g><g id="LWPOLYLINE_13_"><path d="M117.672,153.1l-0.3,-15.5l-0.6,-15.4l-4.7,0l-0.5,15.4l-0.3,15.4l-0.7,27.9l7.7,0l-0.6,-27.8Z" style="fill:none;fill-rule:nonzero;stroke:#000;stroke-width:0.67px;"/></g><g id="LWPOLYLINE_14_"><path d="M119.772,184l0,-2.3l-11,0l0,8l1.8,0l5.2,-3l4,-2.7Z" style="fill:none;fill-rule:nonzero;stroke:#000;stroke-width:0.67px;"/></g><g id="LWPOLYLINE_15_"><path d="M48.472,184l0,-2.3l11,0l0,8l-1.8,0l-4.8,-2.5l-4.4,-3.2Z" style="fill:none;fill-rule:nonzero;stroke:#000;stroke-width:0.67px;"/></g><g id="LWPOLYLINE_16_"><path d="M50.472,153.1l0.4,-15.5l0.5,-15.4l4.8,0l0.8,30.8l0.7,27.9l-7.8,0l0.6,-27.8Z" style="fill:none;fill-rule:nonzero;stroke:#000;stroke-width:0.67px;"/></g><path d="M74.672,30l-73,0l0,18.5l73,0l0,17.2l18.5,0l0,-17.2l73,0l0,-18.5l-73,0l0,-17.4l-18.5,0l0,17.4Z" style="fill:#333;fill-rule:nonzero;"/><path d="M166.172,66.9l0,-1.2l-164.5,0l-0,9.6l0.1,6.4l0.2,7.2l0.2,7.7l0.3,7.8l0.6,7.4l0.8,6.7l1,5.9l1.2,5.4l1.3,4.9l1.5,4.5l1.5,4.2l1.7,3.9l1.8,3.8l3.8,7.6l2.1,3.8l2.2,3.8l2.5,3.9l2.8,3.9l3.1,3.9l3.5,4l3.9,4.1l4.4,4.2l4.9,4.2l5.6,4.3l6.4,4.3l7.3,4.3l8.3,4.3l9.4,4.2l9.4,-4.2l8.3,-4.3l7.3,-4.3l6.4,-4.3l5.6,-4.3l4.9,-4.2l4.4,-4.2l3.9,-4.1l3.5,-4l3.1,-3.9l2.8,-3.9l2.5,-3.9l2.2,-3.8l2.1,-3.8l3.8,-7.6l1.8,-3.8l1.7,-3.9l1.5,-4.2l1.5,-4.5l1.3,-4.9l1.2,-5.4l1,-5.9l0.8,-6.7l0.6,-7.4l0.4,-7.8l0.2,-7.7l0.2,-7.2l0.1,-6.4l0,-5.1l-0.4,-3.3Zm-82.2,129.8c-34.4,0 -62.3,-27.9 -62.3,-62.3c0,-34.4 27.9,-62.3 62.3,-62.3c34.4,0 62.3,27.9 62.3,62.3c0,34.5 -27.9,62.3 -62.3,62.3Z" style="fill:#333;fill-rule:nonzero;stroke:#333;stroke-width:3.34px;"/><path d="M72.272,141.6l-0.6,6l-0.5,6.1l-1,8.9l-0.9,5.7l-0.8,3.8l-0.9,3.8l-1.1,3.8l-0.6,2.9l-0.6,3.5l-0.3,2.5l-0.4,2.5l40.5,0.3l-1.9,-7.3l-0.8,-3.1l-0.5,-2.5l-0.7,-3.2l-0.4,-2.7l-0.4,-6.6l-0.2,-6.2l-0.1,-5.1l-0.1,-3.3l0,-1.3l-0.4,0.3l-0.9,1l-1.9,1.9l-1.2,-12.2l0.5,-1.4l1.2,11.9l1.2,-1.4l1.8,-2.2l1,-1.2l1.1,-1.5l0.5,-1.2l0.8,-2.1l0.5,-1.5l0.3,-1.4l0,-1.3l-0.3,-2.8l-0.8,-2.2l-1.6,-3.9l-1.6,-3.4l-0.4,-0.5l-2.2,-2.9l-2.3,-2.6l-0.5,0.2l-7.5,1.9l-2.8,0.5l-1.4,0.2l-1.8,0.1l-2.6,-0.2l-1.9,-0.1l-2.7,0l-0.8,0.2l-0.6,0.2l-0.4,0.2l-0.5,0.3l-0.3,0.3l-0.4,0.5l-0.4,0.6l-0.3,0.5l-0.5,0.9l-0.5,1.1l-0.7,2.1l-0.6,2l-0.8,2.5l-0.5,0.9l-0.9,1.4l-1.1,1.5l-1.6,2.4l-0.5,1l-0.5,1.2l-0.2,0.5l0,0.9l0.1,0.3l0.1,0.4l0.2,0.5l0.2,0.6l0.2,0.3l0.2,0.5l0.3,0.6l0.3,0.7l0.5,1l0.2,0.5l0,0.5l0.2,0.8l0.1,0.6l0.2,0.7l0.2,0.9l0.1,0.2l0.2,0.3l0.4,0.4l0.2,0.1l0.5,0l0.3,-0.1l0.2,-0.1l0.6,-0.6l0.4,-0.5l0.4,-0.6l0.5,-0.8l0.3,-0.6l0.8,-1.9l0.6,-1.7l0.7,-2.2l0.3,-2.9l0.5,-4l0.4,-2.4l0.8,-4.5l0.7,0.3l-0.8,5.1l-0.8,5.9Zm18.7,-10.1l6.7,1.9l-2.2,7.4l-0.8,-0.1l-2.6,0l-0.3,-0.1l-0.2,-0.1l-0.3,-0.1l-0.2,-0.1l-0.2,0l-0.3,0.1l-0.2,0.3l0,0.3l0.3,0.6l0.4,0.4l0.6,0.4l-0.2,0l-0.5,0.1l-1.4,0l-0.7,0.1l-0.7,0.2l-0.8,-0.2l3.6,-11.1Zm-3.5,12.3l0.2,-0.4l0.2,-0.2l0.6,-0.3l0.5,-0.1l0.4,-0.1l0.5,-0.1l0.8,0l0.6,-0.1l0.5,-0.1l0.4,-0.2l0.1,0l0.1,-0.1l0,-0.2l-0.4,-0.4l-0.6,-0.4l-0.5,-0.5l-0.2,-0.4l0,-0.2l0.1,-0.1l0.5,0l0.6,0.2l0.4,0.1l0.5,0l0.7,-0.1l1.3,0l0.6,0.2l0.3,3.8l-0.9,0.6l-1.5,0.6l-1.2,0.4l-0.8,0.2l-0.5,0.1l-0.6,0l-0.6,-0.1l-0.7,-0.2l-0.5,-0.3l-0.3,-0.3l-0.3,-0.5l-0.1,-0.4l-0.1,-0.5l-0.1,0.1Z" style="fill:#333;fill-rule:nonzero;"/><rect x="1.672" y="12.6" width="164.4" height="53" style="fill:none;stroke:#333;stroke-width:3.34px;"/><g id="LWPOLYLINE_3_"><path d="M95.272,119.3l-0.3,-0.5l-0.4,-0.7l-0.7,-1l-0.7,-0.9l-0.4,-0.4l-0.2,-0.1l-0.1,-0.1l-0.2,-0.1l-0.8,0l-0.7,0.2l-0.6,0.1l-0.4,0.2l-0.3,0.1l-0.2,0l-0.2,0.2l-0.6,0.2l-0.7,0.2l-0.6,0.1l-2.1,0.3l-6.6,0l-0.6,0.1l-0.4,0.1l-0.3,0.1l-0.2,0l-0.6,0.2l-0.4,0.2l-0.2,0.2l-0.3,0.2l-0.5,0.6l-0.6,0.7l-0.4,0.6l-0.6,0.8l-0.4,0.6l-0.3,0.6l-0.7,0.8l0.4,-0.3l0.4,-0.2l0.5,-0.2l0.4,-0.1l0.5,-0.1l0.7,-0.1l2.4,0l4.1,0.1l1.8,0l4.3,-0.9l7.8,-1.8Z" style="fill:none;fill-rule:nonzero;stroke:#333;stroke-width:1.34px;"/></g><g><path d="M245.272,66c-11.8,0 -17.7,-6.9 -17.7,-16.7l0,-32.2l9.2,0l0,31.8c0,6.7 2.7,10 8.6,10c5.9,0 8.7,-3.3 8.7,-10l0,-31.8l9.2,0l0,32.2c-0.1,9.6 -6.3,16.7 -18,16.7Z" style="fill:#333;fill-rule:nonzero;"/><path d="M297.272,64.9l-16.4,-38.8c0.5,4.2 1.2,10.3 1.2,19.2l0,19.6l-8.3,0l0,-47.9l11.6,0l16.7,38.8c-0.4,-2.6 -1.2,-9.6 -1.2,-16.3l0,-22.5l8.3,0l0,47.9l-11.9,0Z" style="fill:#333;fill-rule:nonzero;"/><rect x="320.372" y="17" width="9.2" height="47.9" style="fill:#333;fill-rule:nonzero;"/><path d="M349.472,64.9l-14.6,-47.9l9.9,0l10.4,39.9l10.1,-39.9l9.3,0l-14.2,47.9l-10.9,0Z" style="fill:#333;fill-rule:nonzero;"/><path d="M389.172,23.8l0,13.4l15.4,0l0,6.8l-15.4,0l0,14.1l19,0l0,6.9l-28.1,0l0,-47.9l27.8,0l-1,6.8c0,-0.1 -17.7,-0.1 -17.7,-0.1Z" style="fill:#333;fill-rule:nonzero;"/><path d="M425.872,45.7l0,19.2l-9.2,0l0,-47.9l14.3,0c12.6,0 19,4.5 19,14.1c0,6.6 -3.2,10.4 -9.7,12.9l12.6,20.9l-10.6,0l-10.6,-19.2l-5.8,0Zm5.7,-6.6c5.7,0 8.9,-2.3 8.9,-8c0,-5.2 -3,-7.4 -9.6,-7.4l-4.9,0l0,15.5l5.6,-0.1Z" style="fill:#333;fill-rule:nonzero;"/><path d="M488.672,21.9l-4.6,5.2c-3.3,-2.9 -6.6,-4.2 -10.6,-4.2c-4.3,0 -7.4,1.9 -7.4,5.7c0,3.5 1.9,5 9.9,7.5c8.4,2.6 14.2,6.1 14.2,15.1c0,8.6 -6.7,14.7 -18.2,14.7c-7.6,0 -13.3,-2.7 -17.3,-6.6l4.9,-5.4c3.3,3.1 7.2,4.9 12.2,4.9c5.2,0 8.8,-2.5 8.8,-7.2c0,-4 -2,-5.9 -9.5,-8.1c-10,-3.1 -14.4,-7.2 -14.4,-14.4c0,-7.9 6.9,-13.3 16.3,-13.3c7,0.1 11.6,2.2 15.7,6.1Z" style="fill:#333;fill-rule:nonzero;"/><rect x="497.972" y="17" width="9.2" height="47.9" style="fill:#333;fill-rule:nonzero;"/><path d="M535.772,24.3l0,40.6l-9.3,0l0,-40.6l-12.9,0l0,-7.2l35.6,0l-1,7.2c0.1,-0 -12.4,-0 -12.4,-0Z" style="fill:#333;fill-rule:nonzero;"/><path d="M557.572,53.8l-3,11.1l-9.5,0l14.9,-47.9l11.3,0l14.9,47.9l-9.7,0l-3,-11.1l-15.9,0Zm-1.6,-46.9l3.5,-6.9l14.6,8.1l-2.3,4.5l-15.8,-5.7Zm9.4,17l-6.1,22.9l12.2,0l-6.1,-22.9Z" style="fill:#333;fill-rule:nonzero;"/><path d="M264.572,112.4c0,19.4 -11.9,24.2 -23.3,24.2l-13,0l0,-47.9l11.8,0c12.5,0 24.5,3.9 24.5,23.7Zm-27.2,17.3l4.5,0c7.2,0 13,-3.2 13,-17.3c0,-14.4 -6.2,-16.9 -13.3,-16.9l-4.2,0l0,34.2Z" style="fill:#333;fill-rule:nonzero;"/><path d="M282.372,95.5l0,13.4l15.4,0l0,6.8l-15.4,0l0,14.1l19,0l0,6.9l-28.1,0l0,-47.9l27.8,0l-1,6.8l-17.7,-0.1Z" style="fill:#333;fill-rule:nonzero;"/><path d="M344.572,93.2l-5,5.2c-3.2,-2.6 -5.9,-3.9 -10,-3.9c-6.8,0 -12.6,5.2 -12.6,18c0,13.1 3.9,18 11.4,18c2.7,0 5.3,-0.5 7.6,-1.8l0,-12.5l-7.2,0l-1,-6.8l17.2,0l0,23.4c-4.6,2.9 -10.3,4.7 -16.9,4.7c-13.3,0 -20.8,-8.6 -20.8,-25.1c0,-16.3 10,-25 21.8,-25c6.9,0.2 11.5,2.4 15.5,5.8Z" style="fill:#333;fill-rule:nonzero;"/><path d="M382.572,129.1l-1.1,7.5l-27.4,0l0,-47.9l9.2,0l0,40.4l19.3,0Z" style="fill:#333;fill-rule:nonzero;"/><rect x="389.272" y="88.7" width="9.2" height="47.9" style="fill:#333;fill-rule:nonzero;"/><path d="M456.772,93.6l-4.6,5.2c-3.3,-2.9 -6.6,-4.2 -10.6,-4.2c-4.3,0 -7.4,1.9 -7.4,5.7c0,3.5 1.9,5 9.9,7.5c8.4,2.6 14.3,6.1 14.3,15.1c0,8.6 -6.7,14.7 -18.2,14.7c-7.6,0 -13.3,-2.7 -17.3,-6.6l4.9,-5.4c3.3,3.1 7.2,4.9 12.2,4.9c5.2,0 8.8,-2.5 8.8,-7.2c0,-4 -2,-5.9 -9.5,-8.1c-10,-3.1 -14.4,-7.2 -14.4,-14.4c0,-7.9 6.9,-13.3 16.3,-13.3c6.8,0.1 11.4,2.2 15.6,6.1Z" style="fill:#333;fill-rule:nonzero;"/><path d="M482.672,95.9l0,40.6l-9.2,0l0,-40.6l-13,0l0,-7.2l35.6,0l-1,7.2l-12.4,0Z" style="fill:#333;fill-rule:nonzero;"/><path d="M519.072,137.6c-11.8,0 -17.7,-6.9 -17.7,-16.7l0,-32.2l9.2,0l0,31.8c0,6.7 2.7,10 8.6,10c5.9,0 8.7,-3.3 8.7,-10l0,-31.8l9.2,0l0,32.2c-0.1,9.7 -6.3,16.7 -18,16.7Z" style="fill:#333;fill-rule:nonzero;"/><path d="M583.872,112.4c0,19.4 -11.9,24.2 -23.3,24.2l-13,0l0,-47.9l11.8,0c12.6,0 24.5,3.9 24.5,23.7Zm-27.2,17.3l4.5,0c7.2,0 13,-3.2 13,-17.3c0,-14.4 -6.2,-16.9 -13.3,-16.9l-4.2,0l0,34.2Z" style="fill:#333;fill-rule:nonzero;"/><rect x="592.472" y="88.7" width="9.2" height="47.9" style="fill:#333;fill-rule:nonzero;"/><path d="M264.572,184c0,19.4 -11.9,24.2 -23.3,24.2l-13,0l0,-47.9l11.8,0c12.5,0.1 24.5,3.9 24.5,23.7Zm-27.2,17.4l4.5,0c7.2,0 13,-3.2 13,-17.3c0,-14.4 -6.2,-16.9 -13.3,-16.9l-4.2,0l0,34.2Z" style="fill:#333;fill-rule:nonzero;"/><rect x="273.172" y="160.3" width="9.2" height="47.9" style="fill:#333;fill-rule:nonzero;"/><path d="M345.572,164.9l-5,5.2c-3.2,-2.6 -5.9,-3.9 -10,-3.9c-6.8,0 -12.6,5.2 -12.6,18c0,13.1 3.9,18 11.4,18c2.7,0 5.3,-0.5 7.6,-1.9l0,-12.5l-7.2,0l-1,-6.8l17.2,0l0,23.4c-4.6,2.9 -10.3,4.7 -16.9,4.7c-13.3,0 -20.8,-8.6 -20.8,-25.1c0,-16.3 10,-25 21.8,-25c7,0.3 11.5,2.5 15.5,5.9Z" style="fill:#333;fill-rule:nonzero;"/><path d="M364.372,167.2l0,13.4l15.4,0l0,6.8l-15.4,0l0,14.1l19,0l0,6.9l-28.1,0l0,-47.9l27.8,0l-1,6.8l-17.7,-0.1Z" style="fill:#333;fill-rule:nonzero;"/><path d="M415.572,208.2l-16.4,-38.8c0.5,4.2 1.2,10.3 1.2,19.2l0,19.6l-8.3,0l0,-47.9l11.6,0l16.7,38.8c-0.4,-2.6 -1.2,-9.6 -1.2,-16.3l0,-22.5l8.3,0l0,47.9l-11.9,0Z" style="fill:#333;fill-rule:nonzero;"/><path d="M477.972,184.3c0,15.8 -8.1,25.1 -21,25.1c-12.9,0 -21,-8.9 -21,-25c0,-15.7 8.2,-25.1 21,-25.1c12.9,0 21,8.9 21,25Zm-32.3,0.1c0,12.9 4.4,18 11.4,18c7.2,0 11.3,-5.1 11.3,-18c0,-12.8 -4.1,-18 -11.3,-18c-7.2,-0.1 -11.4,5.1 -11.4,18Z" style="fill:#333;fill-rule:nonzero;"/><path d="M494.172,208.2l-14.6,-47.9l9.9,0l10.4,39.9l10.1,-39.9l9.3,0l-14.2,47.9l-10.9,0Z" style="fill:#333;fill-rule:nonzero;"/><path d="M528.072,197.1l-3,11.1l-9.5,0l14.9,-47.9l11.3,0l14.9,47.9l-9.7,0l-3,-11.1l-15.9,0Zm7.9,-29.8l-6.1,22.9l12.2,0l-6.1,-22.9Z" style="fill:#333;fill-rule:nonzero;"/></g></svg>